<?xml version="1.0" encoding="UTF-8" standalone="no"?>
<!DOCTYPE svg PUBLIC "-//W3C//DTD SVG 1.1//EN"
 "http://www.w3.org/Graphics/SVG/1.1/DTD/svg11.dtd">
<!-- Generated by graphviz version 2.47.0 (20210316.0004)
 -->
<!-- Title: dependencies Pages: 1 -->
<svg width="504pt" height="211pt"
 viewBox="0.00 0.00 504.00 211.00" xmlns="http://www.w3.org/2000/svg" xmlns:xlink="http://www.w3.org/1999/xlink">
<g id="graph0" class="graph" transform="scale(1 1) rotate(0) translate(4 207)">
<title>dependencies</title>
<polygon fill="white" stroke="transparent" points="-4,4 -4,-207 500,-207 500,4 -4,4"/>
<text text-anchor="start" x="227.01" y="-42.4" font-family="Times-12" font-weight="bold" font-size="14.00">Legend</text>
<polygon fill="#ffffb3" stroke="transparent" points="14,-10 14,-30 34,-30 34,-10 14,-10"/>
<text text-anchor="start" x="37.63" y="-15.4" font-family="Times-12" font-size="14.00"> &#160;Declarations</text>
<polygon fill="#8dd3c7" stroke="transparent" points="127,-10 127,-30 147,-30 147,-10 127,-10"/>
<text text-anchor="start" x="150.73" y="-15.4" font-family="Times-12" font-size="14.00"> &#160;Module</text>
<polygon fill="#80b1d3" stroke="transparent" points="213,-10 213,-30 233,-30 233,-10 213,-10"/>
<text text-anchor="start" x="236.78" y="-15.4" font-family="Times-12" font-size="14.00"> &#160;Bootstrap</text>
<polygon fill="#fdb462" stroke="transparent" points="310,-10 310,-30 330,-30 330,-10 310,-10"/>
<text text-anchor="start" x="333.67" y="-15.4" font-family="Times-12" font-size="14.00"> &#160;Providers</text>
<polygon fill="#fb8072" stroke="transparent" points="406,-10 406,-30 426,-30 426,-10 406,-10"/>
<text text-anchor="start" x="429.73" y="-15.4" font-family="Times-12" font-size="14.00"> &#160;Exports</text>
<g id="clust1" class="cluster">
<title>cluster_BrandModule</title>
<polygon fill="none" stroke="black" stroke-dasharray="1,5" points="92,-70 92,-195 404,-195 404,-70 92,-70"/>
</g>
<g id="clust3" class="cluster">
<title>cluster_BrandModule_imports</title>
<polygon fill="none" stroke="black" points="252,-78 252,-130 396,-130 396,-78 252,-78"/>
</g>
<g id="clust6" class="cluster">
<title>cluster_BrandModule_providers</title>
<polygon fill="none" stroke="black" points="100,-78 100,-130 244,-130 244,-78 100,-78"/>
</g>
<!-- PermissionModules -->
<g id="node1" class="node">
<title>PermissionModules</title>
<polygon fill="#8dd3c7" stroke="black" points="387.71,-122 384.71,-126 363.71,-126 360.71,-122 260.29,-122 260.29,-86 387.71,-86 387.71,-122"/>
<text text-anchor="middle" x="324" y="-99.8" font-family="Times,serif" font-size="14.00">PermissionModules</text>
</g>
<!-- BrandModule -->
<g id="node2" class="node">
<title>BrandModule</title>
<polygon fill="#8dd3c7" stroke="black" points="294.76,-187 291.76,-191 270.76,-191 267.76,-187 201.24,-187 201.24,-151 294.76,-151 294.76,-187"/>
<text text-anchor="middle" x="248" y="-164.8" font-family="Times,serif" font-size="14.00">BrandModule</text>
</g>
<!-- PermissionModules&#45;&gt;BrandModule -->
<g id="edge1" class="edge">
<title>PermissionModules&#45;&gt;BrandModule</title>
<path fill="none" stroke="black" d="M277.64,-122.11C277.64,-122.11 277.64,-140.99 277.64,-140.99"/>
<polygon fill="black" stroke="black" points="274.14,-140.99 277.64,-150.99 281.14,-140.99 274.14,-140.99"/>
</g>
<!-- BrandService -->
<g id="node3" class="node">
<title>BrandService</title>
<ellipse fill="#fdb462" stroke="black" cx="172" cy="-104" rx="63.68" ry="18"/>
<text text-anchor="middle" x="172" y="-99.8" font-family="Times,serif" font-size="14.00">BrandService</text>
</g>
<!-- BrandService&#45;&gt;BrandModule -->
<g id="edge2" class="edge">
<title>BrandService&#45;&gt;BrandModule</title>
<path fill="none" stroke="black" d="M218.35,-116.53C218.35,-116.53 218.35,-140.85 218.35,-140.85"/>
<polygon fill="black" stroke="black" points="214.85,-140.85 218.35,-150.85 221.85,-140.85 214.85,-140.85"/>
</g>
</g>
</svg>
