<?xml version="1.0" encoding="UTF-8" standalone="no"?>
<!DOCTYPE svg PUBLIC "-//W3C//DTD SVG 1.1//EN"
 "http://www.w3.org/Graphics/SVG/1.1/DTD/svg11.dtd">
<!-- Generated by graphviz version 2.47.0 (20210316.0004)
 -->
<!-- Title: dependencies Pages: 1 -->
<svg width="632pt" height="211pt"
 viewBox="0.00 0.00 632.00 211.00" xmlns="http://www.w3.org/2000/svg" xmlns:xlink="http://www.w3.org/1999/xlink">
<g id="graph0" class="graph" transform="scale(1 1) rotate(0) translate(4 207)">
<title>dependencies</title>
<polygon fill="white" stroke="transparent" points="-4,4 -4,-207 628,-207 628,4 -4,4"/>
<text text-anchor="start" x="291.01" y="-42.4" font-family="Times-12" font-weight="bold" font-size="14.00">Legend</text>
<polygon fill="#ffffb3" stroke="transparent" points="78,-10 78,-30 98,-30 98,-10 78,-10"/>
<text text-anchor="start" x="101.63" y="-15.4" font-family="Times-12" font-size="14.00"> &#160;Declarations</text>
<polygon fill="#8dd3c7" stroke="transparent" points="191,-10 191,-30 211,-30 211,-10 191,-10"/>
<text text-anchor="start" x="214.73" y="-15.4" font-family="Times-12" font-size="14.00"> &#160;Module</text>
<polygon fill="#80b1d3" stroke="transparent" points="277,-10 277,-30 297,-30 297,-10 277,-10"/>
<text text-anchor="start" x="300.78" y="-15.4" font-family="Times-12" font-size="14.00"> &#160;Bootstrap</text>
<polygon fill="#fdb462" stroke="transparent" points="374,-10 374,-30 394,-30 394,-10 374,-10"/>
<text text-anchor="start" x="397.67" y="-15.4" font-family="Times-12" font-size="14.00"> &#160;Providers</text>
<polygon fill="#fb8072" stroke="transparent" points="470,-10 470,-30 490,-30 490,-10 470,-10"/>
<text text-anchor="start" x="493.73" y="-15.4" font-family="Times-12" font-size="14.00"> &#160;Exports</text>
<g id="clust1" class="cluster">
<title>cluster_AuthModule</title>
<polygon fill="none" stroke="black" stroke-dasharray="1,5" points="8,-70 8,-195 616,-195 616,-70 8,-70"/>
</g>
<g id="clust3" class="cluster">
<title>cluster_AuthModule_imports</title>
<polygon fill="none" stroke="black" points="464,-78 464,-130 608,-130 608,-78 464,-78"/>
</g>
<g id="clust6" class="cluster">
<title>cluster_AuthModule_providers</title>
<polygon fill="none" stroke="black" points="16,-78 16,-130 456,-130 456,-78 16,-78"/>
</g>
<!-- PermissionModules -->
<g id="node1" class="node">
<title>PermissionModules</title>
<polygon fill="#8dd3c7" stroke="black" points="599.71,-122 596.71,-126 575.71,-126 572.71,-122 472.29,-122 472.29,-86 599.71,-86 599.71,-122"/>
<text text-anchor="middle" x="536" y="-99.8" font-family="Times,serif" font-size="14.00">PermissionModules</text>
</g>
<!-- AuthModule -->
<g id="node2" class="node">
<title>AuthModule</title>
<polygon fill="#8dd3c7" stroke="black" points="357.55,-187 354.55,-191 333.55,-191 330.55,-187 270.45,-187 270.45,-151 357.55,-151 357.55,-187"/>
<text text-anchor="middle" x="314" y="-164.8" font-family="Times,serif" font-size="14.00">AuthModule</text>
</g>
<!-- PermissionModules&#45;&gt;AuthModule -->
<g id="edge1" class="edge">
<title>PermissionModules&#45;&gt;AuthModule</title>
<path fill="none" stroke="black" d="M536,-122.11C536,-141.34 536,-169 536,-169 536,-169 367.6,-169 367.6,-169"/>
<polygon fill="black" stroke="black" points="367.6,-165.5 357.6,-169 367.6,-172.5 367.6,-165.5"/>
</g>
<!-- AuthService -->
<g id="node3" class="node">
<title>AuthService</title>
<ellipse fill="#fdb462" stroke="black" cx="389" cy="-104" rx="59.11" ry="18"/>
<text text-anchor="middle" x="389" y="-99.8" font-family="Times,serif" font-size="14.00">AuthService</text>
</g>
<!-- AuthService&#45;&gt;AuthModule -->
<g id="edge2" class="edge">
<title>AuthService&#45;&gt;AuthModule</title>
<path fill="none" stroke="black" d="M343.73,-115.92C343.73,-115.92 343.73,-140.77 343.73,-140.77"/>
<polygon fill="black" stroke="black" points="340.23,-140.77 343.73,-150.77 347.23,-140.77 340.23,-140.77"/>
</g>
<!-- EmailProcessor -->
<g id="node4" class="node">
<title>EmailProcessor</title>
<ellipse fill="#fdb462" stroke="black" cx="240" cy="-104" rx="71.78" ry="18"/>
<text text-anchor="middle" x="240" y="-99.8" font-family="Times,serif" font-size="14.00">EmailProcessor</text>
</g>
<!-- EmailProcessor&#45;&gt;AuthModule -->
<g id="edge3" class="edge">
<title>EmailProcessor&#45;&gt;AuthModule</title>
<path fill="none" stroke="black" d="M290.93,-116.84C290.93,-116.84 290.93,-140.52 290.93,-140.52"/>
<polygon fill="black" stroke="black" points="287.43,-140.52 290.93,-150.52 294.43,-140.52 287.43,-140.52"/>
</g>
<!-- EmailService -->
<g id="node5" class="node">
<title>EmailService</title>
<ellipse fill="#fdb462" stroke="black" cx="87" cy="-104" rx="63.12" ry="18"/>
<text text-anchor="middle" x="87" y="-99.8" font-family="Times,serif" font-size="14.00">EmailService</text>
</g>
<!-- EmailService&#45;&gt;AuthModule -->
<g id="edge4" class="edge">
<title>EmailService&#45;&gt;AuthModule</title>
<path fill="none" stroke="black" d="M87,-122.11C87,-141.34 87,-169 87,-169 87,-169 260.23,-169 260.23,-169"/>
<polygon fill="black" stroke="black" points="260.23,-172.5 270.23,-169 260.23,-165.5 260.23,-172.5"/>
</g>
</g>
</svg>
