<?xml version="1.0" encoding="UTF-8" standalone="no"?>
<!DOCTYPE svg PUBLIC "-//W3C//DTD SVG 1.1//EN"
 "http://www.w3.org/Graphics/SVG/1.1/DTD/svg11.dtd">
<!-- Generated by graphviz version 2.47.0 (20210316.0004)
 -->
<!-- Title: dependencies Pages: 1 -->
<svg width="504pt" height="211pt"
 viewBox="0.00 0.00 504.00 211.00" xmlns="http://www.w3.org/2000/svg" xmlns:xlink="http://www.w3.org/1999/xlink">
<g id="graph0" class="graph" transform="scale(1 1) rotate(0) translate(4 207)">
<title>dependencies</title>
<polygon fill="white" stroke="transparent" points="-4,4 -4,-207 500,-207 500,4 -4,4"/>
<text text-anchor="start" x="227.01" y="-42.4" font-family="Times-12" font-weight="bold" font-size="14.00">Legend</text>
<polygon fill="#ffffb3" stroke="transparent" points="14,-10 14,-30 34,-30 34,-10 14,-10"/>
<text text-anchor="start" x="37.63" y="-15.4" font-family="Times-12" font-size="14.00"> &#160;Declarations</text>
<polygon fill="#8dd3c7" stroke="transparent" points="127,-10 127,-30 147,-30 147,-10 127,-10"/>
<text text-anchor="start" x="150.73" y="-15.4" font-family="Times-12" font-size="14.00"> &#160;Module</text>
<polygon fill="#80b1d3" stroke="transparent" points="213,-10 213,-30 233,-30 233,-10 213,-10"/>
<text text-anchor="start" x="236.78" y="-15.4" font-family="Times-12" font-size="14.00"> &#160;Bootstrap</text>
<polygon fill="#fdb462" stroke="transparent" points="310,-10 310,-30 330,-30 330,-10 310,-10"/>
<text text-anchor="start" x="333.67" y="-15.4" font-family="Times-12" font-size="14.00"> &#160;Providers</text>
<polygon fill="#fb8072" stroke="transparent" points="406,-10 406,-30 426,-30 426,-10 406,-10"/>
<text text-anchor="start" x="429.73" y="-15.4" font-family="Times-12" font-size="14.00"> &#160;Exports</text>
<g id="clust1" class="cluster">
<title>cluster_unitsModule</title>
<polygon fill="none" stroke="black" stroke-dasharray="1,5" points="99,-70 99,-195 397,-195 397,-70 99,-70"/>
</g>
<g id="clust6" class="cluster">
<title>cluster_unitsModule_providers</title>
<polygon fill="none" stroke="black" points="259,-78 259,-130 389,-130 389,-78 259,-78"/>
</g>
<g id="clust3" class="cluster">
<title>cluster_unitsModule_imports</title>
<polygon fill="none" stroke="black" points="107,-78 107,-130 251,-130 251,-78 107,-78"/>
</g>
<!-- PermissionModules -->
<g id="node1" class="node">
<title>PermissionModules</title>
<polygon fill="#8dd3c7" stroke="black" points="242.71,-122 239.71,-126 218.71,-126 215.71,-122 115.29,-122 115.29,-86 242.71,-86 242.71,-122"/>
<text text-anchor="middle" x="179" y="-99.8" font-family="Times,serif" font-size="14.00">PermissionModules</text>
</g>
<!-- unitsModule -->
<g id="node2" class="node">
<title>unitsModule</title>
<polygon fill="#8dd3c7" stroke="black" points="294.28,-187 291.28,-191 270.28,-191 267.28,-187 207.72,-187 207.72,-151 294.28,-151 294.28,-187"/>
<text text-anchor="middle" x="251" y="-164.8" font-family="Times,serif" font-size="14.00">unitsModule</text>
</g>
<!-- PermissionModules&#45;&gt;unitsModule -->
<g id="edge1" class="edge">
<title>PermissionModules&#45;&gt;unitsModule</title>
<path fill="none" stroke="black" d="M225.11,-122.11C225.11,-122.11 225.11,-140.99 225.11,-140.99"/>
<polygon fill="black" stroke="black" points="221.61,-140.99 225.11,-150.99 228.61,-140.99 221.61,-140.99"/>
</g>
<!-- UnitService -->
<g id="node3" class="node">
<title>UnitService</title>
<ellipse fill="#fdb462" stroke="black" cx="324" cy="-104" rx="57.32" ry="18"/>
<text text-anchor="middle" x="324" y="-99.8" font-family="Times,serif" font-size="14.00">UnitService</text>
</g>
<!-- UnitService&#45;&gt;unitsModule -->
<g id="edge2" class="edge">
<title>UnitService&#45;&gt;unitsModule</title>
<path fill="none" stroke="black" d="M280.61,-115.92C280.61,-115.92 280.61,-140.77 280.61,-140.77"/>
<polygon fill="black" stroke="black" points="277.11,-140.77 280.61,-150.77 284.11,-140.77 277.11,-140.77"/>
</g>
</g>
</svg>
