<?xml version="1.0" encoding="UTF-8" standalone="no"?>
<!DOCTYPE svg PUBLIC "-//W3C//DTD SVG 1.1//EN"
 "http://www.w3.org/Graphics/SVG/1.1/DTD/svg11.dtd">
<!-- Generated by graphviz version 2.47.0 (20210316.0004)
 -->
<!-- Title: dependencies Pages: 1 -->
<svg width="630pt" height="211pt"
 viewBox="0.00 0.00 630.00 211.00" xmlns="http://www.w3.org/2000/svg" xmlns:xlink="http://www.w3.org/1999/xlink">
<g id="graph0" class="graph" transform="scale(1 1) rotate(0) translate(4 207)">
<title>dependencies</title>
<polygon fill="white" stroke="transparent" points="-4,4 -4,-207 626,-207 626,4 -4,4"/>
<text text-anchor="start" x="290.01" y="-42.4" font-family="Times-12" font-weight="bold" font-size="14.00">Legend</text>
<polygon fill="#ffffb3" stroke="transparent" points="77,-10 77,-30 97,-30 97,-10 77,-10"/>
<text text-anchor="start" x="100.63" y="-15.4" font-family="Times-12" font-size="14.00"> &#160;Declarations</text>
<polygon fill="#8dd3c7" stroke="transparent" points="190,-10 190,-30 210,-30 210,-10 190,-10"/>
<text text-anchor="start" x="213.73" y="-15.4" font-family="Times-12" font-size="14.00"> &#160;Module</text>
<polygon fill="#80b1d3" stroke="transparent" points="276,-10 276,-30 296,-30 296,-10 276,-10"/>
<text text-anchor="start" x="299.78" y="-15.4" font-family="Times-12" font-size="14.00"> &#160;Bootstrap</text>
<polygon fill="#fdb462" stroke="transparent" points="373,-10 373,-30 393,-30 393,-10 373,-10"/>
<text text-anchor="start" x="396.67" y="-15.4" font-family="Times-12" font-size="14.00"> &#160;Providers</text>
<polygon fill="#fb8072" stroke="transparent" points="469,-10 469,-30 489,-30 489,-10 469,-10"/>
<text text-anchor="start" x="492.73" y="-15.4" font-family="Times-12" font-size="14.00"> &#160;Exports</text>
<g id="clust1" class="cluster">
<title>cluster_UserModules</title>
<polygon fill="none" stroke="black" stroke-dasharray="1,5" points="8,-70 8,-195 614,-195 614,-70 8,-70"/>
</g>
<g id="clust3" class="cluster">
<title>cluster_UserModules_imports</title>
<polygon fill="none" stroke="black" points="462,-78 462,-130 606,-130 606,-78 462,-78"/>
</g>
<g id="clust6" class="cluster">
<title>cluster_UserModules_providers</title>
<polygon fill="none" stroke="black" points="16,-78 16,-130 454,-130 454,-78 16,-78"/>
</g>
<!-- PermissionModules -->
<g id="node1" class="node">
<title>PermissionModules</title>
<polygon fill="#8dd3c7" stroke="black" points="597.71,-122 594.71,-126 573.71,-126 570.71,-122 470.29,-122 470.29,-86 597.71,-86 597.71,-122"/>
<text text-anchor="middle" x="534" y="-99.8" font-family="Times,serif" font-size="14.00">PermissionModules</text>
</g>
<!-- UserModules -->
<g id="node2" class="node">
<title>UserModules</title>
<polygon fill="#8dd3c7" stroke="black" points="342.92,-187 339.92,-191 318.92,-191 315.92,-187 251.08,-187 251.08,-151 342.92,-151 342.92,-187"/>
<text text-anchor="middle" x="297" y="-164.8" font-family="Times,serif" font-size="14.00">UserModules</text>
</g>
<!-- PermissionModules&#45;&gt;UserModules -->
<g id="edge1" class="edge">
<title>PermissionModules&#45;&gt;UserModules</title>
<path fill="none" stroke="black" d="M534,-122.11C534,-141.34 534,-169 534,-169 534,-169 352.98,-169 352.98,-169"/>
<polygon fill="black" stroke="black" points="352.98,-165.5 342.98,-169 352.98,-172.5 352.98,-165.5"/>
</g>
<!-- EmailProcessor -->
<g id="node3" class="node">
<title>EmailProcessor</title>
<ellipse fill="#fdb462" stroke="black" cx="374" cy="-104" rx="71.78" ry="18"/>
<text text-anchor="middle" x="374" y="-99.8" font-family="Times,serif" font-size="14.00">EmailProcessor</text>
</g>
<!-- EmailProcessor&#45;&gt;UserModules -->
<g id="edge2" class="edge">
<title>EmailProcessor&#45;&gt;UserModules</title>
<path fill="none" stroke="black" d="M322.53,-116.53C322.53,-116.53 322.53,-140.85 322.53,-140.85"/>
<polygon fill="black" stroke="black" points="319.03,-140.85 322.53,-150.85 326.03,-140.85 319.03,-140.85"/>
</g>
<!-- EmailService -->
<g id="node4" class="node">
<title>EmailService</title>
<ellipse fill="#fdb462" stroke="black" cx="221" cy="-104" rx="63.12" ry="18"/>
<text text-anchor="middle" x="221" y="-99.8" font-family="Times,serif" font-size="14.00">EmailService</text>
</g>
<!-- EmailService&#45;&gt;UserModules -->
<g id="edge3" class="edge">
<title>EmailService&#45;&gt;UserModules</title>
<path fill="none" stroke="black" d="M267.67,-116.23C267.67,-116.23 267.67,-140.68 267.67,-140.68"/>
<polygon fill="black" stroke="black" points="264.17,-140.68 267.67,-150.68 271.17,-140.68 264.17,-140.68"/>
</g>
<!-- UserService -->
<g id="node5" class="node">
<title>UserService</title>
<ellipse fill="#fdb462" stroke="black" cx="82" cy="-104" rx="58.44" ry="18"/>
<text text-anchor="middle" x="82" y="-99.8" font-family="Times,serif" font-size="14.00">UserService</text>
</g>
<!-- UserService&#45;&gt;UserModules -->
<g id="edge4" class="edge">
<title>UserService&#45;&gt;UserModules</title>
<path fill="none" stroke="black" d="M82,-122.11C82,-141.34 82,-169 82,-169 82,-169 241.14,-169 241.14,-169"/>
<polygon fill="black" stroke="black" points="241.14,-172.5 251.14,-169 241.14,-165.5 241.14,-172.5"/>
</g>
</g>
</svg>
