<?xml version="1.0" encoding="UTF-8" standalone="no"?>
<!DOCTYPE svg PUBLIC "-//W3C//DTD SVG 1.1//EN"
 "http://www.w3.org/Graphics/SVG/1.1/DTD/svg11.dtd">
<!-- Generated by graphviz version 2.47.0 (20210316.0004)
 -->
<!-- Title: dependencies Pages: 1 -->
<svg width="504pt" height="211pt"
 viewBox="0.00 0.00 504.00 211.00" xmlns="http://www.w3.org/2000/svg" xmlns:xlink="http://www.w3.org/1999/xlink">
<g id="graph0" class="graph" transform="scale(1 1) rotate(0) translate(4 207)">
<title>dependencies</title>
<polygon fill="white" stroke="transparent" points="-4,4 -4,-207 500,-207 500,4 -4,4"/>
<text text-anchor="start" x="227.01" y="-42.4" font-family="Times-12" font-weight="bold" font-size="14.00">Legend</text>
<polygon fill="#ffffb3" stroke="transparent" points="14,-10 14,-30 34,-30 34,-10 14,-10"/>
<text text-anchor="start" x="37.63" y="-15.4" font-family="Times-12" font-size="14.00"> &#160;Declarations</text>
<polygon fill="#8dd3c7" stroke="transparent" points="127,-10 127,-30 147,-30 147,-10 127,-10"/>
<text text-anchor="start" x="150.73" y="-15.4" font-family="Times-12" font-size="14.00"> &#160;Module</text>
<polygon fill="#80b1d3" stroke="transparent" points="213,-10 213,-30 233,-30 233,-10 213,-10"/>
<text text-anchor="start" x="236.78" y="-15.4" font-family="Times-12" font-size="14.00"> &#160;Bootstrap</text>
<polygon fill="#fdb462" stroke="transparent" points="310,-10 310,-30 330,-30 330,-10 310,-10"/>
<text text-anchor="start" x="333.67" y="-15.4" font-family="Times-12" font-size="14.00"> &#160;Providers</text>
<polygon fill="#fb8072" stroke="transparent" points="406,-10 406,-30 426,-30 426,-10 406,-10"/>
<text text-anchor="start" x="429.73" y="-15.4" font-family="Times-12" font-size="14.00"> &#160;Exports</text>
<g id="clust1" class="cluster">
<title>cluster_VendorModule</title>
<polygon fill="none" stroke="black" stroke-dasharray="1,5" points="87,-70 87,-195 409,-195 409,-70 87,-70"/>
</g>
<g id="clust3" class="cluster">
<title>cluster_VendorModule_imports</title>
<polygon fill="none" stroke="black" points="257,-78 257,-130 401,-130 401,-78 257,-78"/>
</g>
<g id="clust6" class="cluster">
<title>cluster_VendorModule_providers</title>
<polygon fill="none" stroke="black" points="95,-78 95,-130 249,-130 249,-78 95,-78"/>
</g>
<!-- PermissionModules -->
<g id="node1" class="node">
<title>PermissionModules</title>
<polygon fill="#8dd3c7" stroke="black" points="392.71,-122 389.71,-126 368.71,-126 365.71,-122 265.29,-122 265.29,-86 392.71,-86 392.71,-122"/>
<text text-anchor="middle" x="329" y="-99.8" font-family="Times,serif" font-size="14.00">PermissionModules</text>
</g>
<!-- VendorModule -->
<g id="node2" class="node">
<title>VendorModule</title>
<polygon fill="#8dd3c7" stroke="black" points="300.53,-187 297.53,-191 276.53,-191 273.53,-187 199.47,-187 199.47,-151 300.53,-151 300.53,-187"/>
<text text-anchor="middle" x="250" y="-164.8" font-family="Times,serif" font-size="14.00">VendorModule</text>
</g>
<!-- PermissionModules&#45;&gt;VendorModule -->
<g id="edge1" class="edge">
<title>PermissionModules&#45;&gt;VendorModule</title>
<path fill="none" stroke="black" d="M283.08,-122.11C283.08,-122.11 283.08,-140.99 283.08,-140.99"/>
<polygon fill="black" stroke="black" points="279.58,-140.99 283.08,-150.99 286.58,-140.99 279.58,-140.99"/>
</g>
<!-- VendorService -->
<g id="node3" class="node">
<title>VendorService</title>
<ellipse fill="#fdb462" stroke="black" cx="172" cy="-104" rx="68.9" ry="18"/>
<text text-anchor="middle" x="172" y="-99.8" font-family="Times,serif" font-size="14.00">VendorService</text>
</g>
<!-- VendorService&#45;&gt;VendorModule -->
<g id="edge2" class="edge">
<title>VendorService&#45;&gt;VendorModule</title>
<path fill="none" stroke="black" d="M220.09,-117.15C220.09,-117.15 220.09,-140.69 220.09,-140.69"/>
<polygon fill="black" stroke="black" points="216.59,-140.69 220.09,-150.69 223.59,-140.69 216.59,-140.69"/>
</g>
</g>
</svg>
