<?xml version="1.0" encoding="UTF-8" standalone="no"?>
<!DOCTYPE svg PUBLIC "-//W3C//DTD SVG 1.1//EN"
 "http://www.w3.org/Graphics/SVG/1.1/DTD/svg11.dtd">
<!-- Generated by graphviz version 2.47.0 (20210316.0004)
 -->
<!-- Title: dependencies Pages: 1 -->
<svg width="504pt" height="211pt"
 viewBox="0.00 0.00 504.00 211.00" xmlns="http://www.w3.org/2000/svg" xmlns:xlink="http://www.w3.org/1999/xlink">
<g id="graph0" class="graph" transform="scale(1 1) rotate(0) translate(4 207)">
<title>dependencies</title>
<polygon fill="white" stroke="transparent" points="-4,4 -4,-207 500,-207 500,4 -4,4"/>
<text text-anchor="start" x="227.01" y="-42.4" font-family="Times-12" font-weight="bold" font-size="14.00">Legend</text>
<polygon fill="#ffffb3" stroke="transparent" points="14,-10 14,-30 34,-30 34,-10 14,-10"/>
<text text-anchor="start" x="37.63" y="-15.4" font-family="Times-12" font-size="14.00"> &#160;Declarations</text>
<polygon fill="#8dd3c7" stroke="transparent" points="127,-10 127,-30 147,-30 147,-10 127,-10"/>
<text text-anchor="start" x="150.73" y="-15.4" font-family="Times-12" font-size="14.00"> &#160;Module</text>
<polygon fill="#80b1d3" stroke="transparent" points="213,-10 213,-30 233,-30 233,-10 213,-10"/>
<text text-anchor="start" x="236.78" y="-15.4" font-family="Times-12" font-size="14.00"> &#160;Bootstrap</text>
<polygon fill="#fdb462" stroke="transparent" points="310,-10 310,-30 330,-30 330,-10 310,-10"/>
<text text-anchor="start" x="333.67" y="-15.4" font-family="Times-12" font-size="14.00"> &#160;Providers</text>
<polygon fill="#fb8072" stroke="transparent" points="406,-10 406,-30 426,-30 426,-10 406,-10"/>
<text text-anchor="start" x="429.73" y="-15.4" font-family="Times-12" font-size="14.00"> &#160;Exports</text>
<g id="clust1" class="cluster">
<title>cluster_CategoryModule</title>
<polygon fill="none" stroke="black" stroke-dasharray="1,5" points="83,-70 83,-195 413,-195 413,-70 83,-70"/>
</g>
<g id="clust6" class="cluster">
<title>cluster_CategoryModule_providers</title>
<polygon fill="none" stroke="black" points="243,-78 243,-130 405,-130 405,-78 243,-78"/>
</g>
<g id="clust3" class="cluster">
<title>cluster_CategoryModule_imports</title>
<polygon fill="none" stroke="black" points="91,-78 91,-130 235,-130 235,-78 91,-78"/>
</g>
<!-- PermissionModules -->
<g id="node1" class="node">
<title>PermissionModules</title>
<polygon fill="#8dd3c7" stroke="black" points="226.71,-122 223.71,-126 202.71,-126 199.71,-122 99.29,-122 99.29,-86 226.71,-86 226.71,-122"/>
<text text-anchor="middle" x="163" y="-99.8" font-family="Times,serif" font-size="14.00">PermissionModules</text>
</g>
<!-- CategoryModule -->
<g id="node2" class="node">
<title>CategoryModule</title>
<polygon fill="#8dd3c7" stroke="black" points="298.37,-187 295.37,-191 274.37,-191 271.37,-187 187.63,-187 187.63,-151 298.37,-151 298.37,-187"/>
<text text-anchor="middle" x="243" y="-164.8" font-family="Times,serif" font-size="14.00">CategoryModule</text>
</g>
<!-- PermissionModules&#45;&gt;CategoryModule -->
<g id="edge1" class="edge">
<title>PermissionModules&#45;&gt;CategoryModule</title>
<path fill="none" stroke="black" d="M207.09,-122.11C207.09,-122.11 207.09,-140.99 207.09,-140.99"/>
<polygon fill="black" stroke="black" points="203.59,-140.99 207.09,-150.99 210.59,-140.99 203.59,-140.99"/>
</g>
<!-- categoryService -->
<g id="node3" class="node">
<title>categoryService</title>
<ellipse fill="#fdb462" stroke="black" cx="324" cy="-104" rx="73.47" ry="18"/>
<text text-anchor="middle" x="324" y="-99.8" font-family="Times,serif" font-size="14.00">categoryService</text>
</g>
<!-- categoryService&#45;&gt;CategoryModule -->
<g id="edge2" class="edge">
<title>categoryService&#45;&gt;CategoryModule</title>
<path fill="none" stroke="black" d="M274.6,-117.47C274.6,-117.47 274.6,-140.86 274.6,-140.86"/>
<polygon fill="black" stroke="black" points="271.1,-140.86 274.6,-150.86 278.1,-140.86 271.1,-140.86"/>
</g>
</g>
</svg>
