<?xml version="1.0" encoding="UTF-8" standalone="no"?>
<!DOCTYPE svg PUBLIC "-//W3C//DTD SVG 1.1//EN"
 "http://www.w3.org/Graphics/SVG/1.1/DTD/svg11.dtd">
<!-- Generated by graphviz version 2.47.0 (20210316.0004)
 -->
<!-- Title: dependencies Pages: 1 -->
<svg width="504pt" height="211pt"
 viewBox="0.00 0.00 504.00 211.00" xmlns="http://www.w3.org/2000/svg" xmlns:xlink="http://www.w3.org/1999/xlink">
<g id="graph0" class="graph" transform="scale(1 1) rotate(0) translate(4 207)">
<title>dependencies</title>
<polygon fill="white" stroke="transparent" points="-4,4 -4,-207 500,-207 500,4 -4,4"/>
<text text-anchor="start" x="227.01" y="-42.4" font-family="Times-12" font-weight="bold" font-size="14.00">Legend</text>
<polygon fill="#ffffb3" stroke="transparent" points="14,-10 14,-30 34,-30 34,-10 14,-10"/>
<text text-anchor="start" x="37.63" y="-15.4" font-family="Times-12" font-size="14.00"> &#160;Declarations</text>
<polygon fill="#8dd3c7" stroke="transparent" points="127,-10 127,-30 147,-30 147,-10 127,-10"/>
<text text-anchor="start" x="150.73" y="-15.4" font-family="Times-12" font-size="14.00"> &#160;Module</text>
<polygon fill="#80b1d3" stroke="transparent" points="213,-10 213,-30 233,-30 233,-10 213,-10"/>
<text text-anchor="start" x="236.78" y="-15.4" font-family="Times-12" font-size="14.00"> &#160;Bootstrap</text>
<polygon fill="#fdb462" stroke="transparent" points="310,-10 310,-30 330,-30 330,-10 310,-10"/>
<text text-anchor="start" x="333.67" y="-15.4" font-family="Times-12" font-size="14.00"> &#160;Providers</text>
<polygon fill="#fb8072" stroke="transparent" points="406,-10 406,-30 426,-30 426,-10 406,-10"/>
<text text-anchor="start" x="429.73" y="-15.4" font-family="Times-12" font-size="14.00"> &#160;Exports</text>
<g id="clust1" class="cluster">
<title>cluster_RolesModule</title>
<polygon fill="none" stroke="black" stroke-dasharray="1,5" points="94,-70 94,-195 402,-195 402,-70 94,-70"/>
</g>
<g id="clust6" class="cluster">
<title>cluster_RolesModule_providers</title>
<polygon fill="none" stroke="black" points="254,-78 254,-130 394,-130 394,-78 254,-78"/>
</g>
<g id="clust3" class="cluster">
<title>cluster_RolesModule_imports</title>
<polygon fill="none" stroke="black" points="102,-78 102,-130 246,-130 246,-78 102,-78"/>
</g>
<!-- PermissionModules -->
<g id="node1" class="node">
<title>PermissionModules</title>
<polygon fill="#8dd3c7" stroke="black" points="237.71,-122 234.71,-126 213.71,-126 210.71,-122 110.29,-122 110.29,-86 237.71,-86 237.71,-122"/>
<text text-anchor="middle" x="174" y="-99.8" font-family="Times,serif" font-size="14.00">PermissionModules</text>
</g>
<!-- RolesModule -->
<g id="node2" class="node">
<title>RolesModule</title>
<polygon fill="#8dd3c7" stroke="black" points="294.94,-187 291.94,-191 270.94,-191 267.94,-187 203.06,-187 203.06,-151 294.94,-151 294.94,-187"/>
<text text-anchor="middle" x="249" y="-164.8" font-family="Times,serif" font-size="14.00">RolesModule</text>
</g>
<!-- PermissionModules&#45;&gt;RolesModule -->
<g id="edge1" class="edge">
<title>PermissionModules&#45;&gt;RolesModule</title>
<path fill="none" stroke="black" d="M220.44,-122.11C220.44,-122.11 220.44,-140.99 220.44,-140.99"/>
<polygon fill="black" stroke="black" points="216.94,-140.99 220.44,-150.99 223.94,-140.99 216.94,-140.99"/>
</g>
<!-- RolesService -->
<g id="node3" class="node">
<title>RolesService</title>
<ellipse fill="#fdb462" stroke="black" cx="324" cy="-104" rx="61.97" ry="18"/>
<text text-anchor="middle" x="324" y="-99.8" font-family="Times,serif" font-size="14.00">RolesService</text>
</g>
<!-- RolesService&#45;&gt;RolesModule -->
<g id="edge2" class="edge">
<title>RolesService&#45;&gt;RolesModule</title>
<path fill="none" stroke="black" d="M278.37,-116.23C278.37,-116.23 278.37,-140.68 278.37,-140.68"/>
<polygon fill="black" stroke="black" points="274.87,-140.68 278.37,-150.68 281.87,-140.68 274.87,-140.68"/>
</g>
</g>
</svg>
