<?xml version="1.0" encoding="UTF-8" standalone="no"?>
<!DOCTYPE svg PUBLIC "-//W3C//DTD SVG 1.1//EN"
 "http://www.w3.org/Graphics/SVG/1.1/DTD/svg11.dtd">
<!-- Generated by graphviz version 2.47.0 (20210316.0004)
 -->
<!-- Title: dependencies Pages: 1 -->
<svg width="504pt" height="211pt"
 viewBox="0.00 0.00 504.00 211.00" xmlns="http://www.w3.org/2000/svg" xmlns:xlink="http://www.w3.org/1999/xlink">
<g id="graph0" class="graph" transform="scale(1 1) rotate(0) translate(4 207)">
<title>dependencies</title>
<polygon fill="white" stroke="transparent" points="-4,4 -4,-207 500,-207 500,4 -4,4"/>
<text text-anchor="start" x="227.01" y="-42.4" font-family="Times-12" font-weight="bold" font-size="14.00">Legend</text>
<polygon fill="#ffffb3" stroke="transparent" points="14,-10 14,-30 34,-30 34,-10 14,-10"/>
<text text-anchor="start" x="37.63" y="-15.4" font-family="Times-12" font-size="14.00"> &#160;Declarations</text>
<polygon fill="#8dd3c7" stroke="transparent" points="127,-10 127,-30 147,-30 147,-10 127,-10"/>
<text text-anchor="start" x="150.73" y="-15.4" font-family="Times-12" font-size="14.00"> &#160;Module</text>
<polygon fill="#80b1d3" stroke="transparent" points="213,-10 213,-30 233,-30 233,-10 213,-10"/>
<text text-anchor="start" x="236.78" y="-15.4" font-family="Times-12" font-size="14.00"> &#160;Bootstrap</text>
<polygon fill="#fdb462" stroke="transparent" points="310,-10 310,-30 330,-30 330,-10 310,-10"/>
<text text-anchor="start" x="333.67" y="-15.4" font-family="Times-12" font-size="14.00"> &#160;Providers</text>
<polygon fill="#fb8072" stroke="transparent" points="406,-10 406,-30 426,-30 426,-10 406,-10"/>
<text text-anchor="start" x="429.73" y="-15.4" font-family="Times-12" font-size="14.00"> &#160;Exports</text>
<g id="clust1" class="cluster">
<title>cluster_ReportModule</title>
<polygon fill="none" stroke="black" stroke-dasharray="1,5" points="90,-70 90,-195 406,-195 406,-70 90,-70"/>
</g>
<g id="clust3" class="cluster">
<title>cluster_ReportModule_imports</title>
<polygon fill="none" stroke="black" points="254,-78 254,-130 398,-130 398,-78 254,-78"/>
</g>
<g id="clust6" class="cluster">
<title>cluster_ReportModule_providers</title>
<polygon fill="none" stroke="black" points="98,-78 98,-130 246,-130 246,-78 98,-78"/>
</g>
<!-- PermissionModules -->
<g id="node1" class="node">
<title>PermissionModules</title>
<polygon fill="#8dd3c7" stroke="black" points="389.71,-122 386.71,-126 365.71,-126 362.71,-122 262.29,-122 262.29,-86 389.71,-86 389.71,-122"/>
<text text-anchor="middle" x="326" y="-99.8" font-family="Times,serif" font-size="14.00">PermissionModules</text>
</g>
<!-- ReportModule -->
<g id="node2" class="node">
<title>ReportModule</title>
<polygon fill="#8dd3c7" stroke="black" points="297.65,-187 294.65,-191 273.65,-191 270.65,-187 200.35,-187 200.35,-151 297.65,-151 297.65,-187"/>
<text text-anchor="middle" x="249" y="-164.8" font-family="Times,serif" font-size="14.00">ReportModule</text>
</g>
<!-- PermissionModules&#45;&gt;ReportModule -->
<g id="edge1" class="edge">
<title>PermissionModules&#45;&gt;ReportModule</title>
<path fill="none" stroke="black" d="M280.11,-122.11C280.11,-122.11 280.11,-140.99 280.11,-140.99"/>
<polygon fill="black" stroke="black" points="276.61,-140.99 280.11,-150.99 283.61,-140.99 276.61,-140.99"/>
</g>
<!-- ReportService -->
<g id="node3" class="node">
<title>ReportService</title>
<ellipse fill="#fdb462" stroke="black" cx="172" cy="-104" rx="66.05" ry="18"/>
<text text-anchor="middle" x="172" y="-99.8" font-family="Times,serif" font-size="14.00">ReportService</text>
</g>
<!-- ReportService&#45;&gt;ReportModule -->
<g id="edge2" class="edge">
<title>ReportService&#45;&gt;ReportModule</title>
<path fill="none" stroke="black" d="M219.22,-116.84C219.22,-116.84 219.22,-140.52 219.22,-140.52"/>
<polygon fill="black" stroke="black" points="215.72,-140.52 219.22,-150.52 222.72,-140.52 215.72,-140.52"/>
</g>
</g>
</svg>
