<?xml version="1.0" encoding="UTF-8" standalone="no"?>
<!DOCTYPE svg PUBLIC "-//W3C//DTD SVG 1.1//EN"
 "http://www.w3.org/Graphics/SVG/1.1/DTD/svg11.dtd">
<!-- Generated by graphviz version 2.47.0 (20210316.0004)
 -->
<!-- Title: dependencies Pages: 1 -->
<svg width="504pt" height="211pt"
 viewBox="0.00 0.00 504.00 211.00" xmlns="http://www.w3.org/2000/svg" xmlns:xlink="http://www.w3.org/1999/xlink">
<g id="graph0" class="graph" transform="scale(1 1) rotate(0) translate(4 207)">
<title>dependencies</title>
<polygon fill="white" stroke="transparent" points="-4,4 -4,-207 500,-207 500,4 -4,4"/>
<text text-anchor="start" x="227.01" y="-42.4" font-family="Times-12" font-weight="bold" font-size="14.00">Legend</text>
<polygon fill="#ffffb3" stroke="transparent" points="14,-10 14,-30 34,-30 34,-10 14,-10"/>
<text text-anchor="start" x="37.63" y="-15.4" font-family="Times-12" font-size="14.00"> &#160;Declarations</text>
<polygon fill="#8dd3c7" stroke="transparent" points="127,-10 127,-30 147,-30 147,-10 127,-10"/>
<text text-anchor="start" x="150.73" y="-15.4" font-family="Times-12" font-size="14.00"> &#160;Module</text>
<polygon fill="#80b1d3" stroke="transparent" points="213,-10 213,-30 233,-30 233,-10 213,-10"/>
<text text-anchor="start" x="236.78" y="-15.4" font-family="Times-12" font-size="14.00"> &#160;Bootstrap</text>
<polygon fill="#fdb462" stroke="transparent" points="310,-10 310,-30 330,-30 330,-10 310,-10"/>
<text text-anchor="start" x="333.67" y="-15.4" font-family="Times-12" font-size="14.00"> &#160;Providers</text>
<polygon fill="#fb8072" stroke="transparent" points="406,-10 406,-30 426,-30 426,-10 406,-10"/>
<text text-anchor="start" x="429.73" y="-15.4" font-family="Times-12" font-size="14.00"> &#160;Exports</text>
<g id="clust1" class="cluster">
<title>cluster_purchaseModule</title>
<polygon fill="none" stroke="black" stroke-dasharray="1,5" points="82,-70 82,-195 414,-195 414,-70 82,-70"/>
</g>
<g id="clust3" class="cluster">
<title>cluster_purchaseModule_imports</title>
<polygon fill="none" stroke="black" points="262,-78 262,-130 406,-130 406,-78 262,-78"/>
</g>
<g id="clust6" class="cluster">
<title>cluster_purchaseModule_providers</title>
<polygon fill="none" stroke="black" points="90,-78 90,-130 254,-130 254,-78 90,-78"/>
</g>
<!-- PermissionModules -->
<g id="node1" class="node">
<title>PermissionModules</title>
<polygon fill="#8dd3c7" stroke="black" points="397.71,-122 394.71,-126 373.71,-126 370.71,-122 270.29,-122 270.29,-86 397.71,-86 397.71,-122"/>
<text text-anchor="middle" x="334" y="-99.8" font-family="Times,serif" font-size="14.00">PermissionModules</text>
</g>
<!-- purchaseModule -->
<g id="node2" class="node">
<title>purchaseModule</title>
<polygon fill="#8dd3c7" stroke="black" points="307.8,-187 304.8,-191 283.8,-191 280.8,-187 198.2,-187 198.2,-151 307.8,-151 307.8,-187"/>
<text text-anchor="middle" x="253" y="-164.8" font-family="Times,serif" font-size="14.00">purchaseModule</text>
</g>
<!-- PermissionModules&#45;&gt;purchaseModule -->
<g id="edge1" class="edge">
<title>PermissionModules&#45;&gt;purchaseModule</title>
<path fill="none" stroke="black" d="M289.02,-122.11C289.02,-122.11 289.02,-140.99 289.02,-140.99"/>
<polygon fill="black" stroke="black" points="285.52,-140.99 289.02,-150.99 292.52,-140.99 285.52,-140.99"/>
</g>
<!-- purchaseService -->
<g id="node3" class="node">
<title>purchaseService</title>
<ellipse fill="#fdb462" stroke="black" cx="172" cy="-104" rx="74.12" ry="18"/>
<text text-anchor="middle" x="172" y="-99.8" font-family="Times,serif" font-size="14.00">purchaseService</text>
</g>
<!-- purchaseService&#45;&gt;purchaseModule -->
<g id="edge2" class="edge">
<title>purchaseService&#45;&gt;purchaseModule</title>
<path fill="none" stroke="black" d="M222.33,-117.47C222.33,-117.47 222.33,-140.86 222.33,-140.86"/>
<polygon fill="black" stroke="black" points="218.83,-140.86 222.33,-150.86 225.83,-140.86 218.83,-140.86"/>
</g>
</g>
</svg>
