<?xml version="1.0" encoding="UTF-8" standalone="no"?>
<!DOCTYPE svg PUBLIC "-//W3C//DTD SVG 1.1//EN"
 "http://www.w3.org/Graphics/SVG/1.1/DTD/svg11.dtd">
<!-- Generated by graphviz version 2.47.0 (20210316.0004)
 -->
<!-- Title: dependencies Pages: 1 -->
<svg width="1832pt" height="284pt"
 viewBox="0.00 0.00 1832.00 284.00" xmlns="http://www.w3.org/2000/svg" xmlns:xlink="http://www.w3.org/1999/xlink">
<g id="graph0" class="graph" transform="scale(1 1) rotate(0) translate(4 280)">
<title>dependencies</title>
<polygon fill="white" stroke="transparent" points="-4,4 -4,-280 1828,-280 1828,4 -4,4"/>
<text text-anchor="start" x="891.01" y="-42.4" font-family="Times-12" font-weight="bold" font-size="14.00">Legend</text>
<polygon fill="#ffffb3" stroke="transparent" points="678,-10 678,-30 698,-30 698,-10 678,-10"/>
<text text-anchor="start" x="701.63" y="-15.4" font-family="Times-12" font-size="14.00"> &#160;Declarations</text>
<polygon fill="#8dd3c7" stroke="transparent" points="791,-10 791,-30 811,-30 811,-10 791,-10"/>
<text text-anchor="start" x="814.73" y="-15.4" font-family="Times-12" font-size="14.00"> &#160;Module</text>
<polygon fill="#80b1d3" stroke="transparent" points="877,-10 877,-30 897,-30 897,-10 877,-10"/>
<text text-anchor="start" x="900.78" y="-15.4" font-family="Times-12" font-size="14.00"> &#160;Bootstrap</text>
<polygon fill="#fdb462" stroke="transparent" points="974,-10 974,-30 994,-30 994,-10 974,-10"/>
<text text-anchor="start" x="997.67" y="-15.4" font-family="Times-12" font-size="14.00"> &#160;Providers</text>
<polygon fill="#fb8072" stroke="transparent" points="1070,-10 1070,-30 1090,-30 1090,-10 1070,-10"/>
<text text-anchor="start" x="1093.73" y="-15.4" font-family="Times-12" font-size="14.00"> &#160;Exports</text>
<g id="clust1" class="cluster">
<title>cluster_AppModule</title>
<polygon fill="none" stroke="black" stroke-dasharray="1,5" points="8,-70 8,-268 1816,-268 1816,-70 8,-70"/>
</g>
<g id="clust3" class="cluster">
<title>cluster_AppModule_imports</title>
<polygon fill="none" stroke="black" points="16,-78 16,-130 1808,-130 1808,-78 16,-78"/>
</g>
<g id="clust4" class="cluster">
<title>cluster_AppModule_exports</title>
<polygon fill="none" stroke="black" points="795,-208 795,-260 941,-260 941,-208 795,-208"/>
</g>
<!-- AuthModule -->
<g id="node1" class="node">
<title>AuthModule</title>
<polygon fill="#8dd3c7" stroke="black" points="1799.55,-122 1796.55,-126 1775.55,-126 1772.55,-122 1712.45,-122 1712.45,-86 1799.55,-86 1799.55,-122"/>
<text text-anchor="middle" x="1756" y="-99.8" font-family="Times,serif" font-size="14.00">AuthModule</text>
</g>
<!-- AppModule -->
<g id="node16" class="node">
<title>AppModule</title>
<polygon fill="#8dd3c7" stroke="black" points="909.66,-187 906.66,-191 885.66,-191 882.66,-187 826.34,-187 826.34,-151 909.66,-151 909.66,-187"/>
<text text-anchor="middle" x="868" y="-164.8" font-family="Times,serif" font-size="14.00">AppModule</text>
</g>
<!-- AuthModule&#45;&gt;AppModule -->
<g id="edge1" class="edge">
<title>AuthModule&#45;&gt;AppModule</title>
<path fill="none" stroke="black" d="M1756,-122.32C1756,-145.66 1756,-183 1756,-183 1756,-183 919.94,-183 919.94,-183"/>
<polygon fill="black" stroke="black" points="919.94,-179.5 909.94,-183 919.94,-186.5 919.94,-179.5"/>
</g>
<!-- BrandModule -->
<g id="node2" class="node">
<title>BrandModule</title>
<polygon fill="#8dd3c7" stroke="black" points="1693.76,-122 1690.76,-126 1669.76,-126 1666.76,-122 1600.24,-122 1600.24,-86 1693.76,-86 1693.76,-122"/>
<text text-anchor="middle" x="1647" y="-99.8" font-family="Times,serif" font-size="14.00">BrandModule</text>
</g>
<!-- BrandModule&#45;&gt;AppModule -->
<g id="edge2" class="edge">
<title>BrandModule&#45;&gt;AppModule</title>
<path fill="none" stroke="black" d="M1647,-122.29C1647,-144.21 1647,-178 1647,-178 1647,-178 919.88,-178 919.88,-178"/>
<polygon fill="black" stroke="black" points="919.88,-174.5 909.88,-178 919.88,-181.5 919.88,-174.5"/>
</g>
<!-- CategoryModule -->
<g id="node3" class="node">
<title>CategoryModule</title>
<polygon fill="#8dd3c7" stroke="black" points="1582.37,-122 1579.37,-126 1558.37,-126 1555.37,-122 1471.63,-122 1471.63,-86 1582.37,-86 1582.37,-122"/>
<text text-anchor="middle" x="1527" y="-99.8" font-family="Times,serif" font-size="14.00">CategoryModule</text>
</g>
<!-- CategoryModule&#45;&gt;AppModule -->
<g id="edge3" class="edge">
<title>CategoryModule&#45;&gt;AppModule</title>
<path fill="none" stroke="black" d="M1527,-122.03C1527,-142.77 1527,-174 1527,-174 1527,-174 919.72,-174 919.72,-174"/>
<polygon fill="black" stroke="black" points="919.72,-170.5 909.72,-174 919.72,-177.5 919.72,-170.5"/>
</g>
<!-- CompanyModule -->
<g id="node4" class="node">
<title>CompanyModule</title>
<polygon fill="#8dd3c7" stroke="black" points="1453.99,-122 1450.99,-126 1429.99,-126 1426.99,-122 1340.01,-122 1340.01,-86 1453.99,-86 1453.99,-122"/>
<text text-anchor="middle" x="1397" y="-99.8" font-family="Times,serif" font-size="14.00">CompanyModule</text>
</g>
<!-- CompanyModule&#45;&gt;AppModule -->
<g id="edge4" class="edge">
<title>CompanyModule&#45;&gt;AppModule</title>
<path fill="none" stroke="black" d="M1397,-122.11C1397,-141.34 1397,-169 1397,-169 1397,-169 919.95,-169 919.95,-169"/>
<polygon fill="black" stroke="black" points="919.95,-165.5 909.95,-169 919.95,-172.5 919.95,-165.5"/>
</g>
<!-- CustomerModule -->
<g id="node5" class="node">
<title>CustomerModule</title>
<polygon fill="#8dd3c7" stroke="black" points="1321.99,-122 1318.99,-126 1297.99,-126 1294.99,-122 1208.01,-122 1208.01,-86 1321.99,-86 1321.99,-122"/>
<text text-anchor="middle" x="1265" y="-99.8" font-family="Times,serif" font-size="14.00">CustomerModule</text>
</g>
<!-- CustomerModule&#45;&gt;AppModule -->
<g id="edge5" class="edge">
<title>CustomerModule&#45;&gt;AppModule</title>
<path fill="none" stroke="black" d="M1265,-122.3C1265,-140.27 1265,-165 1265,-165 1265,-165 919.74,-165 919.74,-165"/>
<polygon fill="black" stroke="black" points="919.74,-161.5 909.74,-165 919.74,-168.5 919.74,-161.5"/>
</g>
<!-- DatabaseModule -->
<g id="node6" class="node">
<title>DatabaseModule</title>
<polygon fill="#8dd3c7" stroke="black" points="1190.35,-122 1187.35,-126 1166.35,-126 1163.35,-122 1079.65,-122 1079.65,-86 1190.35,-86 1190.35,-122"/>
<text text-anchor="middle" x="1135" y="-99.8" font-family="Times,serif" font-size="14.00">DatabaseModule</text>
</g>
<!-- DatabaseModule&#45;&gt;AppModule -->
<g id="edge6" class="edge">
<title>DatabaseModule&#45;&gt;AppModule</title>
<path fill="none" stroke="black" d="M1135,-122.03C1135,-138.4 1135,-160 1135,-160 1135,-160 919.72,-160 919.72,-160"/>
<polygon fill="black" stroke="black" points="919.72,-156.5 909.72,-160 919.72,-163.5 919.72,-156.5"/>
</g>
<!-- PermissionModules -->
<g id="node7" class="node">
<title>PermissionModules</title>
<polygon fill="#8dd3c7" stroke="black" points="1061.71,-122 1058.71,-126 1037.71,-126 1034.71,-122 934.29,-122 934.29,-86 1061.71,-86 1061.71,-122"/>
<text text-anchor="middle" x="998" y="-99.8" font-family="Times,serif" font-size="14.00">PermissionModules</text>
</g>
<!-- PermissionModules&#45;&gt;AppModule -->
<g id="edge7" class="edge">
<title>PermissionModules&#45;&gt;AppModule</title>
<path fill="none" stroke="black" d="M998,-122.19C998,-137.18 998,-156 998,-156 998,-156 919.85,-156 919.85,-156"/>
<polygon fill="black" stroke="black" points="919.85,-152.5 909.85,-156 919.85,-159.5 919.85,-152.5"/>
</g>
<!-- ReportModule -->
<g id="node8" class="node">
<title>ReportModule</title>
<polygon fill="#8dd3c7" stroke="black" points="916.65,-122 913.65,-126 892.65,-126 889.65,-122 819.35,-122 819.35,-86 916.65,-86 916.65,-122"/>
<text text-anchor="middle" x="868" y="-99.8" font-family="Times,serif" font-size="14.00">ReportModule</text>
</g>
<!-- ReportModule&#45;&gt;AppModule -->
<g id="edge8" class="edge">
<title>ReportModule&#45;&gt;AppModule</title>
<path fill="none" stroke="black" d="M868,-122.11C868,-122.11 868,-140.99 868,-140.99"/>
<polygon fill="black" stroke="black" points="864.5,-140.99 868,-150.99 871.5,-140.99 864.5,-140.99"/>
</g>
<!-- RolesModule -->
<g id="node9" class="node">
<title>RolesModule</title>
<polygon fill="#8dd3c7" stroke="black" points="800.94,-122 797.94,-126 776.94,-126 773.94,-122 709.06,-122 709.06,-86 800.94,-86 800.94,-122"/>
<text text-anchor="middle" x="755" y="-99.8" font-family="Times,serif" font-size="14.00">RolesModule</text>
</g>
<!-- RolesModule&#45;&gt;AppModule -->
<g id="edge9" class="edge">
<title>RolesModule&#45;&gt;AppModule</title>
<path fill="none" stroke="black" d="M755,-122.19C755,-137.18 755,-156 755,-156 755,-156 816.24,-156 816.24,-156"/>
<polygon fill="black" stroke="black" points="816.24,-159.5 826.24,-156 816.24,-152.5 816.24,-159.5"/>
</g>
<!-- UserModules -->
<g id="node10" class="node">
<title>UserModules</title>
<polygon fill="#8dd3c7" stroke="black" points="691.92,-122 688.92,-126 667.92,-126 664.92,-122 600.08,-122 600.08,-86 691.92,-86 691.92,-122"/>
<text text-anchor="middle" x="646" y="-99.8" font-family="Times,serif" font-size="14.00">UserModules</text>
</g>
<!-- UserModules&#45;&gt;AppModule -->
<g id="edge10" class="edge">
<title>UserModules&#45;&gt;AppModule</title>
<path fill="none" stroke="black" d="M646,-122.03C646,-138.4 646,-160 646,-160 646,-160 816.24,-160 816.24,-160"/>
<polygon fill="black" stroke="black" points="816.24,-163.5 826.24,-160 816.24,-156.5 816.24,-163.5"/>
</g>
<!-- VendorModule -->
<g id="node11" class="node">
<title>VendorModule</title>
<polygon fill="#8dd3c7" stroke="black" points="582.53,-122 579.53,-126 558.53,-126 555.53,-122 481.47,-122 481.47,-86 582.53,-86 582.53,-122"/>
<text text-anchor="middle" x="532" y="-99.8" font-family="Times,serif" font-size="14.00">VendorModule</text>
</g>
<!-- VendorModule&#45;&gt;AppModule -->
<g id="edge11" class="edge">
<title>VendorModule&#45;&gt;AppModule</title>
<path fill="none" stroke="black" d="M532,-122.3C532,-140.27 532,-165 532,-165 532,-165 816.12,-165 816.12,-165"/>
<polygon fill="black" stroke="black" points="816.12,-168.5 826.12,-165 816.12,-161.5 816.12,-168.5"/>
</g>
<!-- productModule -->
<g id="node12" class="node">
<title>productModule</title>
<polygon fill="#8dd3c7" stroke="black" points="463.32,-122 460.32,-126 439.32,-126 436.32,-122 360.68,-122 360.68,-86 463.32,-86 463.32,-122"/>
<text text-anchor="middle" x="412" y="-99.8" font-family="Times,serif" font-size="14.00">productModule</text>
</g>
<!-- productModule&#45;&gt;AppModule -->
<g id="edge12" class="edge">
<title>productModule&#45;&gt;AppModule</title>
<path fill="none" stroke="black" d="M412,-122.11C412,-141.34 412,-169 412,-169 412,-169 816.32,-169 816.32,-169"/>
<polygon fill="black" stroke="black" points="816.32,-172.5 826.32,-169 816.32,-165.5 816.32,-172.5"/>
</g>
<!-- purchaseModule -->
<g id="node13" class="node">
<title>purchaseModule</title>
<polygon fill="#8dd3c7" stroke="black" points="342.8,-122 339.8,-126 318.8,-126 315.8,-122 233.2,-122 233.2,-86 342.8,-86 342.8,-122"/>
<text text-anchor="middle" x="288" y="-99.8" font-family="Times,serif" font-size="14.00">purchaseModule</text>
</g>
<!-- purchaseModule&#45;&gt;AppModule -->
<g id="edge13" class="edge">
<title>purchaseModule&#45;&gt;AppModule</title>
<path fill="none" stroke="black" d="M288,-122.03C288,-142.77 288,-174 288,-174 288,-174 816.29,-174 816.29,-174"/>
<polygon fill="black" stroke="black" points="816.29,-177.5 826.29,-174 816.29,-170.5 816.29,-177.5"/>
</g>
<!-- salesModule -->
<g id="node14" class="node">
<title>salesModule</title>
<polygon fill="#8dd3c7" stroke="black" points="215.26,-122 212.26,-126 191.26,-126 188.26,-122 128.74,-122 128.74,-86 215.26,-86 215.26,-122"/>
<text text-anchor="middle" x="172" y="-99.8" font-family="Times,serif" font-size="14.00">salesModule</text>
</g>
<!-- salesModule&#45;&gt;AppModule -->
<g id="edge14" class="edge">
<title>salesModule&#45;&gt;AppModule</title>
<path fill="none" stroke="black" d="M172,-122.29C172,-144.21 172,-178 172,-178 172,-178 816.29,-178 816.29,-178"/>
<polygon fill="black" stroke="black" points="816.29,-181.5 826.29,-178 816.29,-174.5 816.29,-181.5"/>
</g>
<!-- unitsModule -->
<g id="node15" class="node">
<title>unitsModule</title>
<polygon fill="#8dd3c7" stroke="black" points="110.28,-122 107.28,-126 86.28,-126 83.28,-122 23.72,-122 23.72,-86 110.28,-86 110.28,-122"/>
<text text-anchor="middle" x="67" y="-99.8" font-family="Times,serif" font-size="14.00">unitsModule</text>
</g>
<!-- unitsModule&#45;&gt;AppModule -->
<g id="edge15" class="edge">
<title>unitsModule&#45;&gt;AppModule</title>
<path fill="none" stroke="black" d="M67,-122.32C67,-145.66 67,-183 67,-183 67,-183 816.34,-183 816.34,-183"/>
<polygon fill="black" stroke="black" points="816.34,-186.5 826.34,-183 816.34,-179.5 816.34,-186.5"/>
</g>
<!-- PermissionModules  -->
<g id="node17" class="node">
<title>PermissionModules </title>
<polygon fill="#fb8072" stroke="black" points="933.21,-252 802.79,-252 802.79,-216 933.21,-216 933.21,-252"/>
<text text-anchor="middle" x="868" y="-229.8" font-family="Times,serif" font-size="14.00">PermissionModules </text>
</g>
<!-- AppModule&#45;&gt;PermissionModules  -->
<g id="edge16" class="edge">
<title>AppModule&#45;&gt;PermissionModules </title>
<path fill="none" stroke="black" stroke-dasharray="5,2" d="M868,-187.11C868,-187.11 868,-205.99 868,-205.99"/>
<polygon fill="black" stroke="black" points="864.5,-205.99 868,-215.99 871.5,-205.99 864.5,-205.99"/>
</g>
</g>
</svg>
