<?xml version="1.0" encoding="UTF-8" standalone="no"?>
<!DOCTYPE svg PUBLIC "-//W3C//DTD SVG 1.1//EN"
 "http://www.w3.org/Graphics/SVG/1.1/DTD/svg11.dtd">
<!-- Generated by graphviz version 2.47.0 (20210316.0004)
 -->
<!-- Title: dependencies Pages: 1 -->
<svg width="504pt" height="211pt"
 viewBox="0.00 0.00 504.00 211.00" xmlns="http://www.w3.org/2000/svg" xmlns:xlink="http://www.w3.org/1999/xlink">
<g id="graph0" class="graph" transform="scale(1 1) rotate(0) translate(4 207)">
<title>dependencies</title>
<polygon fill="white" stroke="transparent" points="-4,4 -4,-207 500,-207 500,4 -4,4"/>
<text text-anchor="start" x="227.01" y="-42.4" font-family="Times-12" font-weight="bold" font-size="14.00">Legend</text>
<polygon fill="#ffffb3" stroke="transparent" points="14,-10 14,-30 34,-30 34,-10 14,-10"/>
<text text-anchor="start" x="37.63" y="-15.4" font-family="Times-12" font-size="14.00"> &#160;Declarations</text>
<polygon fill="#8dd3c7" stroke="transparent" points="127,-10 127,-30 147,-30 147,-10 127,-10"/>
<text text-anchor="start" x="150.73" y="-15.4" font-family="Times-12" font-size="14.00"> &#160;Module</text>
<polygon fill="#80b1d3" stroke="transparent" points="213,-10 213,-30 233,-30 233,-10 213,-10"/>
<text text-anchor="start" x="236.78" y="-15.4" font-family="Times-12" font-size="14.00"> &#160;Bootstrap</text>
<polygon fill="#fdb462" stroke="transparent" points="310,-10 310,-30 330,-30 330,-10 310,-10"/>
<text text-anchor="start" x="333.67" y="-15.4" font-family="Times-12" font-size="14.00"> &#160;Providers</text>
<polygon fill="#fb8072" stroke="transparent" points="406,-10 406,-30 426,-30 426,-10 406,-10"/>
<text text-anchor="start" x="429.73" y="-15.4" font-family="Times-12" font-size="14.00"> &#160;Exports</text>
<g id="clust1" class="cluster">
<title>cluster_salesModule</title>
<polygon fill="none" stroke="black" stroke-dasharray="1,5" points="97,-70 97,-195 399,-195 399,-70 97,-70"/>
</g>
<g id="clust3" class="cluster">
<title>cluster_salesModule_imports</title>
<polygon fill="none" stroke="black" points="247,-78 247,-130 391,-130 391,-78 247,-78"/>
</g>
<g id="clust6" class="cluster">
<title>cluster_salesModule_providers</title>
<polygon fill="none" stroke="black" points="105,-78 105,-130 239,-130 239,-78 105,-78"/>
</g>
<!-- PermissionModules -->
<g id="node1" class="node">
<title>PermissionModules</title>
<polygon fill="#8dd3c7" stroke="black" points="382.71,-122 379.71,-126 358.71,-126 355.71,-122 255.29,-122 255.29,-86 382.71,-86 382.71,-122"/>
<text text-anchor="middle" x="319" y="-99.8" font-family="Times,serif" font-size="14.00">PermissionModules</text>
</g>
<!-- salesModule -->
<g id="node2" class="node">
<title>salesModule</title>
<polygon fill="#8dd3c7" stroke="black" points="288.26,-187 285.26,-191 264.26,-191 261.26,-187 201.74,-187 201.74,-151 288.26,-151 288.26,-187"/>
<text text-anchor="middle" x="245" y="-164.8" font-family="Times,serif" font-size="14.00">salesModule</text>
</g>
<!-- PermissionModules&#45;&gt;salesModule -->
<g id="edge1" class="edge">
<title>PermissionModules&#45;&gt;salesModule</title>
<path fill="none" stroke="black" d="M271.89,-122.11C271.89,-122.11 271.89,-140.99 271.89,-140.99"/>
<polygon fill="black" stroke="black" points="268.39,-140.99 271.89,-150.99 275.39,-140.99 268.39,-140.99"/>
</g>
<!-- salesService -->
<g id="node3" class="node">
<title>salesService</title>
<ellipse fill="#fdb462" stroke="black" cx="172" cy="-104" rx="58.52" ry="18"/>
<text text-anchor="middle" x="172" y="-99.8" font-family="Times,serif" font-size="14.00">salesService</text>
</g>
<!-- salesService&#45;&gt;salesModule -->
<g id="edge2" class="edge">
<title>salesService&#45;&gt;salesModule</title>
<path fill="none" stroke="black" d="M216.19,-115.92C216.19,-115.92 216.19,-140.77 216.19,-140.77"/>
<polygon fill="black" stroke="black" points="212.69,-140.77 216.19,-150.77 219.69,-140.77 212.69,-140.77"/>
</g>
</g>
</svg>
