<?xml version="1.0" encoding="UTF-8" standalone="no"?>
<!DOCTYPE svg PUBLIC "-//W3C//DTD SVG 1.1//EN"
 "http://www.w3.org/Graphics/SVG/1.1/DTD/svg11.dtd">
<!-- Generated by graphviz version 2.47.0 (20210316.0004)
 -->
<!-- Title: dependencies Pages: 1 -->
<svg width="504pt" height="211pt"
 viewBox="0.00 0.00 504.00 211.00" xmlns="http://www.w3.org/2000/svg" xmlns:xlink="http://www.w3.org/1999/xlink">
<g id="graph0" class="graph" transform="scale(1 1) rotate(0) translate(4 207)">
<title>dependencies</title>
<polygon fill="white" stroke="transparent" points="-4,4 -4,-207 500,-207 500,4 -4,4"/>
<text text-anchor="start" x="227.01" y="-42.4" font-family="Times-12" font-weight="bold" font-size="14.00">Legend</text>
<polygon fill="#ffffb3" stroke="transparent" points="14,-10 14,-30 34,-30 34,-10 14,-10"/>
<text text-anchor="start" x="37.63" y="-15.4" font-family="Times-12" font-size="14.00"> &#160;Declarations</text>
<polygon fill="#8dd3c7" stroke="transparent" points="127,-10 127,-30 147,-30 147,-10 127,-10"/>
<text text-anchor="start" x="150.73" y="-15.4" font-family="Times-12" font-size="14.00"> &#160;Module</text>
<polygon fill="#80b1d3" stroke="transparent" points="213,-10 213,-30 233,-30 233,-10 213,-10"/>
<text text-anchor="start" x="236.78" y="-15.4" font-family="Times-12" font-size="14.00"> &#160;Bootstrap</text>
<polygon fill="#fdb462" stroke="transparent" points="310,-10 310,-30 330,-30 330,-10 310,-10"/>
<text text-anchor="start" x="333.67" y="-15.4" font-family="Times-12" font-size="14.00"> &#160;Providers</text>
<polygon fill="#fb8072" stroke="transparent" points="406,-10 406,-30 426,-30 426,-10 406,-10"/>
<text text-anchor="start" x="429.73" y="-15.4" font-family="Times-12" font-size="14.00"> &#160;Exports</text>
<g id="clust1" class="cluster">
<title>cluster_productModule</title>
<polygon fill="none" stroke="black" stroke-dasharray="1,5" points="86,-70 86,-195 410,-195 410,-70 86,-70"/>
</g>
<g id="clust6" class="cluster">
<title>cluster_productModule_providers</title>
<polygon fill="none" stroke="black" points="246,-78 246,-130 402,-130 402,-78 246,-78"/>
</g>
<g id="clust3" class="cluster">
<title>cluster_productModule_imports</title>
<polygon fill="none" stroke="black" points="94,-78 94,-130 238,-130 238,-78 94,-78"/>
</g>
<!-- PermissionModules -->
<g id="node1" class="node">
<title>PermissionModules</title>
<polygon fill="#8dd3c7" stroke="black" points="229.71,-122 226.71,-126 205.71,-126 202.71,-122 102.29,-122 102.29,-86 229.71,-86 229.71,-122"/>
<text text-anchor="middle" x="166" y="-99.8" font-family="Times,serif" font-size="14.00">PermissionModules</text>
</g>
<!-- productModule -->
<g id="node2" class="node">
<title>productModule</title>
<polygon fill="#8dd3c7" stroke="black" points="296.32,-187 293.32,-191 272.32,-191 269.32,-187 193.68,-187 193.68,-151 296.32,-151 296.32,-187"/>
<text text-anchor="middle" x="245" y="-164.8" font-family="Times,serif" font-size="14.00">productModule</text>
</g>
<!-- PermissionModules&#45;&gt;productModule -->
<g id="edge1" class="edge">
<title>PermissionModules&#45;&gt;productModule</title>
<path fill="none" stroke="black" d="M211.72,-122.11C211.72,-122.11 211.72,-140.99 211.72,-140.99"/>
<polygon fill="black" stroke="black" points="208.22,-140.99 211.72,-150.99 215.22,-140.99 208.22,-140.99"/>
</g>
<!-- ProductService -->
<g id="node3" class="node">
<title>ProductService</title>
<ellipse fill="#fdb462" stroke="black" cx="324" cy="-104" rx="70.06" ry="18"/>
<text text-anchor="middle" x="324" y="-99.8" font-family="Times,serif" font-size="14.00">ProductService</text>
</g>
<!-- ProductService&#45;&gt;productModule -->
<g id="edge2" class="edge">
<title>ProductService&#45;&gt;productModule</title>
<path fill="none" stroke="black" d="M275.06,-117.15C275.06,-117.15 275.06,-140.69 275.06,-140.69"/>
<polygon fill="black" stroke="black" points="271.56,-140.69 275.06,-150.69 278.56,-140.69 271.56,-140.69"/>
</g>
</g>
</svg>
