<?xml version="1.0" encoding="UTF-8" standalone="no"?>
<!DOCTYPE svg PUBLIC "-//W3C//DTD SVG 1.1//EN"
 "http://www.w3.org/Graphics/SVG/1.1/DTD/svg11.dtd">
<!-- Generated by graphviz version 2.47.0 (20210316.0004)
 -->
<!-- Title: dependencies Pages: 1 -->
<svg width="4505pt" height="360pt"
 viewBox="0.00 0.00 4505.00 360.00" xmlns="http://www.w3.org/2000/svg" xmlns:xlink="http://www.w3.org/1999/xlink">
<g id="graph0" class="graph" transform="scale(1 1) rotate(0) translate(4 356)">
<title>dependencies</title>
<polygon fill="white" stroke="transparent" points="-4,4 -4,-356 4501,-356 4501,4 -4,4"/>
<text text-anchor="start" x="2227.51" y="-42.4" font-family="Times-12" font-weight="bold" font-size="14.00">Legend</text>
<polygon fill="#ffffb3" stroke="transparent" points="2014.5,-10 2014.5,-30 2034.5,-30 2034.5,-10 2014.5,-10"/>
<text text-anchor="start" x="2038.13" y="-15.4" font-family="Times-12" font-size="14.00"> &#160;Declarations</text>
<polygon fill="#8dd3c7" stroke="transparent" points="2127.5,-10 2127.5,-30 2147.5,-30 2147.5,-10 2127.5,-10"/>
<text text-anchor="start" x="2151.23" y="-15.4" font-family="Times-12" font-size="14.00"> &#160;Module</text>
<polygon fill="#80b1d3" stroke="transparent" points="2213.5,-10 2213.5,-30 2233.5,-30 2233.5,-10 2213.5,-10"/>
<text text-anchor="start" x="2237.28" y="-15.4" font-family="Times-12" font-size="14.00"> &#160;Bootstrap</text>
<polygon fill="#fdb462" stroke="transparent" points="2310.5,-10 2310.5,-30 2330.5,-30 2330.5,-10 2310.5,-10"/>
<text text-anchor="start" x="2334.17" y="-15.4" font-family="Times-12" font-size="14.00"> &#160;Providers</text>
<polygon fill="#fb8072" stroke="transparent" points="2406.5,-10 2406.5,-30 2426.5,-30 2426.5,-10 2406.5,-10"/>
<text text-anchor="start" x="2430.23" y="-15.4" font-family="Times-12" font-size="14.00"> &#160;Exports</text>
<g id="clust1" class="cluster">
<title>cluster_AppModule</title>
<polygon fill="none" stroke="black" stroke-dasharray="1,5" points="2568,-70 2568,-344 4135,-344 4135,-70 2568,-70"/>
</g>
<g id="clust3" class="cluster">
<title>cluster_AppModule_imports</title>
<polygon fill="none" stroke="black" points="2576,-78 2576,-206 4095,-206 4095,-78 2576,-78"/>
</g>
<g id="clust4" class="cluster">
<title>cluster_AppModule_exports</title>
<polygon fill="none" stroke="black" points="3405,-284 3405,-336 3551,-336 3551,-284 3405,-284"/>
</g>
<g id="clust7" class="cluster">
<title>cluster_AuthModule</title>
<polygon fill="none" stroke="black" stroke-dasharray="1,5" points="8,-70 8,-138 464,-138 464,-70 8,-70"/>
</g>
<g id="clust12" class="cluster">
<title>cluster_AuthModule_providers</title>
<polygon fill="none" stroke="black" points="16,-78 16,-130 456,-130 456,-78 16,-78"/>
</g>
<g id="clust13" class="cluster">
<title>cluster_BrandModule</title>
<polygon fill="none" stroke="black" stroke-dasharray="1,5" points="472,-70 472,-138 632,-138 632,-70 472,-70"/>
</g>
<g id="clust18" class="cluster">
<title>cluster_BrandModule_providers</title>
<polygon fill="none" stroke="black" points="480,-78 480,-130 624,-130 624,-78 480,-78"/>
</g>
<g id="clust19" class="cluster">
<title>cluster_CategoryModule</title>
<polygon fill="none" stroke="black" stroke-dasharray="1,5" points="640,-70 640,-138 818,-138 818,-70 640,-70"/>
</g>
<g id="clust24" class="cluster">
<title>cluster_CategoryModule_providers</title>
<polygon fill="none" stroke="black" points="648,-78 648,-130 810,-130 810,-78 648,-78"/>
</g>
<g id="clust25" class="cluster">
<title>cluster_CompanyModule</title>
<polygon fill="none" stroke="black" stroke-dasharray="1,5" points="826,-70 826,-138 1014,-138 1014,-70 826,-70"/>
</g>
<g id="clust30" class="cluster">
<title>cluster_CompanyModule_providers</title>
<polygon fill="none" stroke="black" points="834,-78 834,-130 1006,-130 1006,-78 834,-78"/>
</g>
<g id="clust31" class="cluster">
<title>cluster_CustomerModule</title>
<polygon fill="none" stroke="black" stroke-dasharray="1,5" points="1022,-70 1022,-138 1210,-138 1210,-70 1022,-70"/>
</g>
<g id="clust36" class="cluster">
<title>cluster_CustomerModule_providers</title>
<polygon fill="none" stroke="black" points="1030,-78 1030,-130 1202,-130 1202,-78 1030,-78"/>
</g>
<g id="clust43" class="cluster">
<title>cluster_PermissionModules</title>
<polygon fill="none" stroke="black" stroke-dasharray="1,5" points="4143,-146 4143,-214 4489,-214 4489,-146 4143,-146"/>
</g>
<g id="clust46" class="cluster">
<title>cluster_PermissionModules_exports</title>
<polygon fill="none" stroke="black" points="4341,-154 4341,-206 4481,-206 4481,-154 4341,-154"/>
</g>
<g id="clust48" class="cluster">
<title>cluster_PermissionModules_providers</title>
<polygon fill="none" stroke="black" points="4151,-154 4151,-206 4333,-206 4333,-154 4151,-154"/>
</g>
<g id="clust49" class="cluster">
<title>cluster_productModule</title>
<polygon fill="none" stroke="black" stroke-dasharray="1,5" points="1218,-70 1218,-138 1390,-138 1390,-70 1218,-70"/>
</g>
<g id="clust54" class="cluster">
<title>cluster_productModule_providers</title>
<polygon fill="none" stroke="black" points="1226,-78 1226,-130 1382,-130 1382,-78 1226,-78"/>
</g>
<g id="clust55" class="cluster">
<title>cluster_purchaseModule</title>
<polygon fill="none" stroke="black" stroke-dasharray="1,5" points="1398,-70 1398,-138 1578,-138 1578,-70 1398,-70"/>
</g>
<g id="clust60" class="cluster">
<title>cluster_purchaseModule_providers</title>
<polygon fill="none" stroke="black" points="1406,-78 1406,-130 1570,-130 1570,-78 1406,-78"/>
</g>
<g id="clust61" class="cluster">
<title>cluster_ReportModule</title>
<polygon fill="none" stroke="black" stroke-dasharray="1,5" points="1586,-70 1586,-138 1750,-138 1750,-70 1586,-70"/>
</g>
<g id="clust66" class="cluster">
<title>cluster_ReportModule_providers</title>
<polygon fill="none" stroke="black" points="1594,-78 1594,-130 1742,-130 1742,-78 1594,-78"/>
</g>
<g id="clust67" class="cluster">
<title>cluster_RolesModule</title>
<polygon fill="none" stroke="black" stroke-dasharray="1,5" points="1758,-70 1758,-138 1914,-138 1914,-70 1758,-70"/>
</g>
<g id="clust72" class="cluster">
<title>cluster_RolesModule_providers</title>
<polygon fill="none" stroke="black" points="1766,-78 1766,-130 1906,-130 1906,-78 1766,-78"/>
</g>
<g id="clust73" class="cluster">
<title>cluster_salesModule</title>
<polygon fill="none" stroke="black" stroke-dasharray="1,5" points="1922,-70 1922,-138 2072,-138 2072,-70 1922,-70"/>
</g>
<g id="clust78" class="cluster">
<title>cluster_salesModule_providers</title>
<polygon fill="none" stroke="black" points="1930,-78 1930,-130 2064,-130 2064,-78 1930,-78"/>
</g>
<g id="clust79" class="cluster">
<title>cluster_unitsModule</title>
<polygon fill="none" stroke="black" stroke-dasharray="1,5" points="2080,-70 2080,-138 2226,-138 2226,-70 2080,-70"/>
</g>
<g id="clust84" class="cluster">
<title>cluster_unitsModule_providers</title>
<polygon fill="none" stroke="black" points="2088,-78 2088,-130 2218,-130 2218,-78 2088,-78"/>
</g>
<g id="clust85" class="cluster">
<title>cluster_UserModules</title>
<polygon fill="none" stroke="black" stroke-dasharray="1,5" points="2234,-70 2234,-138 2382,-138 2382,-70 2234,-70"/>
</g>
<g id="clust90" class="cluster">
<title>cluster_UserModules_providers</title>
<polygon fill="none" stroke="black" points="2242,-78 2242,-130 2374,-130 2374,-78 2242,-78"/>
</g>
<g id="clust91" class="cluster">
<title>cluster_VendorModule</title>
<polygon fill="none" stroke="black" stroke-dasharray="1,5" points="2390,-70 2390,-138 2560,-138 2560,-70 2390,-70"/>
</g>
<g id="clust96" class="cluster">
<title>cluster_VendorModule_providers</title>
<polygon fill="none" stroke="black" points="2398,-78 2398,-130 2552,-130 2552,-78 2398,-78"/>
</g>
<!-- AuthModule -->
<g id="node1" class="node">
<title>AuthModule</title>
<polygon fill="#8dd3c7" stroke="black" points="2671.55,-198 2668.55,-202 2647.55,-202 2644.55,-198 2584.45,-198 2584.45,-162 2671.55,-162 2671.55,-198"/>
<text text-anchor="middle" x="2628" y="-175.8" font-family="Times,serif" font-size="14.00">AuthModule</text>
</g>
<!-- AppModule -->
<g id="node16" class="node">
<title>AppModule</title>
<polygon fill="#8dd3c7" stroke="black" points="3519.66,-263 3516.66,-267 3495.66,-267 3492.66,-263 3436.34,-263 3436.34,-227 3519.66,-227 3519.66,-263"/>
<text text-anchor="middle" x="3478" y="-240.8" font-family="Times,serif" font-size="14.00">AppModule</text>
</g>
<!-- AuthModule&#45;&gt;AppModule -->
<g id="edge1" class="edge">
<title>AuthModule&#45;&gt;AppModule</title>
<path fill="none" stroke="black" d="M2628,-198.32C2628,-221.66 2628,-259 2628,-259 2628,-259 3426.14,-259 3426.14,-259"/>
<polygon fill="black" stroke="black" points="3426.14,-262.5 3436.14,-259 3426.14,-255.5 3426.14,-262.5"/>
</g>
<!-- BrandModule -->
<g id="node2" class="node">
<title>BrandModule</title>
<polygon fill="#8dd3c7" stroke="black" points="2892.76,-198 2889.76,-202 2868.76,-202 2865.76,-198 2799.24,-198 2799.24,-162 2892.76,-162 2892.76,-198"/>
<text text-anchor="middle" x="2846" y="-175.8" font-family="Times,serif" font-size="14.00">BrandModule</text>
</g>
<!-- BrandModule&#45;&gt;AppModule -->
<g id="edge2" class="edge">
<title>BrandModule&#45;&gt;AppModule</title>
<path fill="none" stroke="black" d="M2846,-198.03C2846,-218.77 2846,-250 2846,-250 2846,-250 3426.04,-250 3426.04,-250"/>
<polygon fill="black" stroke="black" points="3426.04,-253.5 3436.04,-250 3426.04,-246.5 3426.04,-253.5"/>
</g>
<!-- CategoryModule -->
<g id="node3" class="node">
<title>CategoryModule</title>
<polygon fill="#8dd3c7" stroke="black" points="3021.37,-198 3018.37,-202 2997.37,-202 2994.37,-198 2910.63,-198 2910.63,-162 3021.37,-162 3021.37,-198"/>
<text text-anchor="middle" x="2966" y="-175.8" font-family="Times,serif" font-size="14.00">CategoryModule</text>
</g>
<!-- CategoryModule&#45;&gt;AppModule -->
<g id="edge3" class="edge">
<title>CategoryModule&#45;&gt;AppModule</title>
<path fill="none" stroke="black" d="M2966,-198.11C2966,-217.34 2966,-245 2966,-245 2966,-245 3426.1,-245 3426.1,-245"/>
<polygon fill="black" stroke="black" points="3426.1,-248.5 3436.1,-245 3426.1,-241.5 3426.1,-248.5"/>
</g>
<!-- CompanyModule -->
<g id="node4" class="node">
<title>CompanyModule</title>
<polygon fill="#8dd3c7" stroke="black" points="3152.99,-198 3149.99,-202 3128.99,-202 3125.99,-198 3039.01,-198 3039.01,-162 3152.99,-162 3152.99,-198"/>
<text text-anchor="middle" x="3096" y="-175.8" font-family="Times,serif" font-size="14.00">CompanyModule</text>
</g>
<!-- CompanyModule&#45;&gt;AppModule -->
<g id="edge4" class="edge">
<title>CompanyModule&#45;&gt;AppModule</title>
<path fill="none" stroke="black" d="M3096,-198.3C3096,-216.27 3096,-241 3096,-241 3096,-241 3426.03,-241 3426.03,-241"/>
<polygon fill="black" stroke="black" points="3426.03,-244.5 3436.03,-241 3426.03,-237.5 3426.03,-244.5"/>
</g>
<!-- CustomerModule -->
<g id="node5" class="node">
<title>CustomerModule</title>
<polygon fill="#8dd3c7" stroke="black" points="3284.99,-198 3281.99,-202 3260.99,-202 3257.99,-198 3171.01,-198 3171.01,-162 3284.99,-162 3284.99,-198"/>
<text text-anchor="middle" x="3228" y="-175.8" font-family="Times,serif" font-size="14.00">CustomerModule</text>
</g>
<!-- CustomerModule&#45;&gt;AppModule -->
<g id="edge5" class="edge">
<title>CustomerModule&#45;&gt;AppModule</title>
<path fill="none" stroke="black" d="M3228,-198.03C3228,-214.4 3228,-236 3228,-236 3228,-236 3426.16,-236 3426.16,-236"/>
<polygon fill="black" stroke="black" points="3426.16,-239.5 3436.16,-236 3426.16,-232.5 3426.16,-239.5"/>
</g>
<!-- DatabaseModule -->
<g id="node6" class="node">
<title>DatabaseModule</title>
<polygon fill="#8dd3c7" stroke="black" points="4087.35,-122 4084.35,-126 4063.35,-126 4060.35,-122 3976.65,-122 3976.65,-86 4087.35,-86 4087.35,-122"/>
<text text-anchor="middle" x="4032" y="-99.8" font-family="Times,serif" font-size="14.00">DatabaseModule</text>
</g>
<!-- DatabaseModule&#45;&gt;AppModule -->
<g id="edge6" class="edge">
<title>DatabaseModule&#45;&gt;AppModule</title>
<path fill="none" stroke="black" d="M3980.9,-122.09C3980.9,-161.99 3980.9,-254 3980.9,-254 3980.9,-254 3530.01,-254 3530.01,-254"/>
<polygon fill="black" stroke="black" points="3530.01,-250.5 3520.01,-254 3530.01,-257.5 3530.01,-250.5"/>
</g>
<!-- PermissionModules -->
<g id="node7" class="node">
<title>PermissionModules</title>
<polygon fill="#8dd3c7" stroke="black" points="3601.71,-122 3598.71,-126 3577.71,-126 3574.71,-122 3474.29,-122 3474.29,-86 3601.71,-86 3601.71,-122"/>
<text text-anchor="middle" x="3538" y="-99.8" font-family="Times,serif" font-size="14.00">PermissionModules</text>
</g>
<!-- PermissionModules&#45;&gt;AuthModule -->
<g id="edge17" class="edge">
<title>PermissionModules&#45;&gt;AuthModule</title>
<path fill="none" stroke="black" d="M3474.37,-91C3267.62,-91 2628,-91 2628,-91 2628,-91 2628,-151.99 2628,-151.99"/>
<polygon fill="black" stroke="black" points="2624.5,-151.99 2628,-161.99 2631.5,-151.99 2624.5,-151.99"/>
</g>
<!-- PermissionModules&#45;&gt;BrandModule -->
<g id="edge21" class="edge">
<title>PermissionModules&#45;&gt;BrandModule</title>
<path fill="none" stroke="black" d="M3474.37,-100C3305.99,-100 2861.63,-100 2861.63,-100 2861.63,-100 2861.63,-151.85 2861.63,-151.85"/>
<polygon fill="black" stroke="black" points="2858.13,-151.85 2861.63,-161.85 2865.13,-151.85 2858.13,-151.85"/>
</g>
<!-- PermissionModules&#45;&gt;CategoryModule -->
<g id="edge23" class="edge">
<title>PermissionModules&#45;&gt;CategoryModule</title>
<path fill="none" stroke="black" d="M3474.23,-104C3328.69,-104 2984.48,-104 2984.48,-104 2984.48,-104 2984.48,-151.99 2984.48,-151.99"/>
<polygon fill="black" stroke="black" points="2980.98,-151.99 2984.48,-161.99 2987.98,-151.99 2980.98,-151.99"/>
</g>
<!-- PermissionModules&#45;&gt;CompanyModule -->
<g id="edge25" class="edge">
<title>PermissionModules&#45;&gt;CompanyModule</title>
<path fill="none" stroke="black" d="M3474.21,-109C3356.05,-109 3115,-109 3115,-109 3115,-109 3115,-151.72 3115,-151.72"/>
<polygon fill="black" stroke="black" points="3111.5,-151.72 3115,-161.72 3118.5,-151.72 3111.5,-151.72"/>
</g>
<!-- PermissionModules&#45;&gt;CustomerModule -->
<g id="edge27" class="edge">
<title>PermissionModules&#45;&gt;CustomerModule</title>
<path fill="none" stroke="black" d="M3474.14,-113C3388.48,-113 3247,-113 3247,-113 3247,-113 3247,-151.69 3247,-151.69"/>
<polygon fill="black" stroke="black" points="3243.5,-151.69 3247,-161.69 3250.5,-151.69 3243.5,-151.69"/>
</g>
<!-- ReportModule -->
<g id="node8" class="node">
<title>ReportModule</title>
<polygon fill="#8dd3c7" stroke="black" points="3647.65,-198 3644.65,-202 3623.65,-202 3620.65,-198 3550.35,-198 3550.35,-162 3647.65,-162 3647.65,-198"/>
<text text-anchor="middle" x="3599" y="-175.8" font-family="Times,serif" font-size="14.00">ReportModule</text>
</g>
<!-- PermissionModules&#45;&gt;ReportModule -->
<g id="edge35" class="edge">
<title>PermissionModules&#45;&gt;ReportModule</title>
<path fill="none" stroke="black" d="M3570.75,-122.01C3570.75,-122.01 3570.75,-151.85 3570.75,-151.85"/>
<polygon fill="black" stroke="black" points="3567.25,-151.85 3570.75,-161.85 3574.25,-151.85 3567.25,-151.85"/>
</g>
<!-- RolesModule -->
<g id="node9" class="node">
<title>RolesModule</title>
<polygon fill="#8dd3c7" stroke="black" points="3757.94,-198 3754.94,-202 3733.94,-202 3730.94,-198 3666.06,-198 3666.06,-162 3757.94,-162 3757.94,-198"/>
<text text-anchor="middle" x="3712" y="-175.8" font-family="Times,serif" font-size="14.00">RolesModule</text>
</g>
<!-- PermissionModules&#45;&gt;RolesModule -->
<g id="edge37" class="edge">
<title>PermissionModules&#45;&gt;RolesModule</title>
<path fill="none" stroke="black" d="M3601.8,-115C3656.74,-115 3727.24,-115 3727.24,-115 3727.24,-115 3727.24,-151.89 3727.24,-151.89"/>
<polygon fill="black" stroke="black" points="3723.74,-151.89 3727.24,-161.89 3730.74,-151.89 3723.74,-151.89"/>
</g>
<!-- UserModules -->
<g id="node10" class="node">
<title>UserModules</title>
<polygon fill="#8dd3c7" stroke="black" points="2780.92,-198 2777.92,-202 2756.92,-202 2753.92,-198 2689.08,-198 2689.08,-162 2780.92,-162 2780.92,-198"/>
<text text-anchor="middle" x="2735" y="-175.8" font-family="Times,serif" font-size="14.00">UserModules</text>
</g>
<!-- PermissionModules&#45;&gt;UserModules -->
<g id="edge43" class="edge">
<title>PermissionModules&#45;&gt;UserModules</title>
<path fill="none" stroke="black" d="M3474.2,-95C3288.68,-95 2762.43,-95 2762.43,-95 2762.43,-95 2762.43,-151.97 2762.43,-151.97"/>
<polygon fill="black" stroke="black" points="2758.93,-151.97 2762.43,-161.97 2765.93,-151.97 2758.93,-151.97"/>
</g>
<!-- VendorModule -->
<g id="node11" class="node">
<title>VendorModule</title>
<polygon fill="#8dd3c7" stroke="black" points="4086.53,-198 4083.53,-202 4062.53,-202 4059.53,-198 3985.47,-198 3985.47,-162 4086.53,-162 4086.53,-198"/>
<text text-anchor="middle" x="4036" y="-175.8" font-family="Times,serif" font-size="14.00">VendorModule</text>
</g>
<!-- PermissionModules&#45;&gt;VendorModule -->
<g id="edge47" class="edge">
<title>PermissionModules&#45;&gt;VendorModule</title>
<path fill="none" stroke="black" d="M3602.04,-94C3722.75,-94 3971.98,-94 3971.98,-94 3971.98,-94 3971.98,-180 3971.98,-180 3971.98,-180 3975.25,-180 3975.25,-180"/>
<polygon fill="black" stroke="black" points="3975.25,-183.5 3985.25,-180 3975.25,-176.5 3975.25,-183.5"/>
</g>
<!-- productModule -->
<g id="node12" class="node">
<title>productModule</title>
<polygon fill="#8dd3c7" stroke="black" points="3405.32,-198 3402.32,-202 3381.32,-202 3378.32,-198 3302.68,-198 3302.68,-162 3405.32,-162 3405.32,-198"/>
<text text-anchor="middle" x="3354" y="-175.8" font-family="Times,serif" font-size="14.00">productModule</text>
</g>
<!-- PermissionModules&#45;&gt;productModule -->
<g id="edge31" class="edge">
<title>PermissionModules&#45;&gt;productModule</title>
<path fill="none" stroke="black" d="M3473.93,-118C3426.85,-118 3371.05,-118 3371.05,-118 3371.05,-118 3371.05,-151.73 3371.05,-151.73"/>
<polygon fill="black" stroke="black" points="3367.55,-151.73 3371.05,-161.73 3374.55,-151.73 3367.55,-151.73"/>
</g>
<!-- purchaseModule -->
<g id="node13" class="node">
<title>purchaseModule</title>
<polygon fill="#8dd3c7" stroke="black" points="3532.8,-198 3529.8,-202 3508.8,-202 3505.8,-198 3423.2,-198 3423.2,-162 3532.8,-162 3532.8,-198"/>
<text text-anchor="middle" x="3478" y="-175.8" font-family="Times,serif" font-size="14.00">purchaseModule</text>
</g>
<!-- PermissionModules&#45;&gt;purchaseModule -->
<g id="edge33" class="edge">
<title>PermissionModules&#45;&gt;purchaseModule</title>
<path fill="none" stroke="black" d="M3503.52,-122.01C3503.52,-122.01 3503.52,-151.85 3503.52,-151.85"/>
<polygon fill="black" stroke="black" points="3500.02,-151.85 3503.52,-161.85 3507.02,-151.85 3500.02,-151.85"/>
</g>
<!-- salesModule -->
<g id="node14" class="node">
<title>salesModule</title>
<polygon fill="#8dd3c7" stroke="black" points="3862.26,-198 3859.26,-202 3838.26,-202 3835.26,-198 3775.74,-198 3775.74,-162 3862.26,-162 3862.26,-198"/>
<text text-anchor="middle" x="3819" y="-175.8" font-family="Times,serif" font-size="14.00">salesModule</text>
</g>
<!-- PermissionModules&#45;&gt;salesModule -->
<g id="edge39" class="edge">
<title>PermissionModules&#45;&gt;salesModule</title>
<path fill="none" stroke="black" d="M3601.75,-108C3688.6,-108 3833.46,-108 3833.46,-108 3833.46,-108 3833.46,-151.83 3833.46,-151.83"/>
<polygon fill="black" stroke="black" points="3829.96,-151.83 3833.46,-161.83 3836.96,-151.83 3829.96,-151.83"/>
</g>
<!-- unitsModule -->
<g id="node15" class="node">
<title>unitsModule</title>
<polygon fill="#8dd3c7" stroke="black" points="3967.28,-198 3964.28,-202 3943.28,-202 3940.28,-198 3880.72,-198 3880.72,-162 3967.28,-162 3967.28,-198"/>
<text text-anchor="middle" x="3924" y="-175.8" font-family="Times,serif" font-size="14.00">unitsModule</text>
</g>
<!-- PermissionModules&#45;&gt;unitsModule -->
<g id="edge41" class="edge">
<title>PermissionModules&#45;&gt;unitsModule</title>
<path fill="none" stroke="black" d="M3601.9,-101C3714.96,-101 3938.46,-101 3938.46,-101 3938.46,-101 3938.46,-151.68 3938.46,-151.68"/>
<polygon fill="black" stroke="black" points="3934.96,-151.68 3938.46,-161.68 3941.96,-151.68 3934.96,-151.68"/>
</g>
<!-- PermissionModules&#45;&gt;AppModule -->
<g id="edge7" class="edge">
<title>PermissionModules&#45;&gt;AppModule</title>
<path fill="none" stroke="black" d="M3538,-122.07C3538,-157.35 3538,-232 3538,-232 3538,-232 3529.67,-232 3529.67,-232"/>
<polygon fill="black" stroke="black" points="3529.67,-228.5 3519.67,-232 3529.67,-235.5 3529.67,-228.5"/>
</g>
<!-- PermissionService  -->
<g id="node25" class="node">
<title>PermissionService </title>
<polygon fill="#fb8072" stroke="black" points="4472.7,-198 4349.3,-198 4349.3,-162 4472.7,-162 4472.7,-198"/>
<text text-anchor="middle" x="4411" y="-175.8" font-family="Times,serif" font-size="14.00">PermissionService </text>
</g>
<!-- PermissionModules&#45;&gt;PermissionService  -->
<g id="edge29" class="edge">
<title>PermissionModules&#45;&gt;PermissionService </title>
<path fill="none" stroke="black" stroke-dasharray="5,2" d="M3581.03,-122.08C3581.03,-123.85 3581.03,-125 3581.03,-125 3581.03,-125 4411,-125 4411,-125 4411,-125 4411,-151.99 4411,-151.99"/>
<polygon fill="black" stroke="black" points="4407.5,-151.99 4411,-161.99 4414.5,-151.99 4407.5,-151.99"/>
</g>
<!-- ReportModule&#45;&gt;AppModule -->
<g id="edge8" class="edge">
<title>ReportModule&#45;&gt;AppModule</title>
<path fill="none" stroke="black" d="M3599,-198.03C3599,-214.4 3599,-236 3599,-236 3599,-236 3529.98,-236 3529.98,-236"/>
<polygon fill="black" stroke="black" points="3529.98,-232.5 3519.98,-236 3529.98,-239.5 3529.98,-232.5"/>
</g>
<!-- RolesModule&#45;&gt;AppModule -->
<g id="edge9" class="edge">
<title>RolesModule&#45;&gt;AppModule</title>
<path fill="none" stroke="black" d="M3712,-198.3C3712,-216.27 3712,-241 3712,-241 3712,-241 3529.83,-241 3529.83,-241"/>
<polygon fill="black" stroke="black" points="3529.83,-237.5 3519.83,-241 3529.83,-244.5 3529.83,-237.5"/>
</g>
<!-- UserModules&#45;&gt;AppModule -->
<g id="edge10" class="edge">
<title>UserModules&#45;&gt;AppModule</title>
<path fill="none" stroke="black" d="M2735,-198.29C2735,-220.21 2735,-254 2735,-254 2735,-254 3426.19,-254 3426.19,-254"/>
<polygon fill="black" stroke="black" points="3426.19,-257.5 3436.19,-254 3426.19,-250.5 3426.19,-257.5"/>
</g>
<!-- VendorModule&#45;&gt;AppModule -->
<g id="edge11" class="edge">
<title>VendorModule&#45;&gt;AppModule</title>
<path fill="none" stroke="black" d="M4036,-198.32C4036,-221.66 4036,-259 4036,-259 4036,-259 3529.94,-259 3529.94,-259"/>
<polygon fill="black" stroke="black" points="3529.94,-255.5 3519.94,-259 3529.94,-262.5 3529.94,-255.5"/>
</g>
<!-- productModule&#45;&gt;AppModule -->
<g id="edge12" class="edge">
<title>productModule&#45;&gt;AppModule</title>
<path fill="none" stroke="black" d="M3354,-198.19C3354,-213.18 3354,-232 3354,-232 3354,-232 3426.02,-232 3426.02,-232"/>
<polygon fill="black" stroke="black" points="3426.02,-235.5 3436.02,-232 3426.02,-228.5 3426.02,-235.5"/>
</g>
<!-- purchaseModule&#45;&gt;AppModule -->
<g id="edge13" class="edge">
<title>purchaseModule&#45;&gt;AppModule</title>
<path fill="none" stroke="black" d="M3478,-198.11C3478,-198.11 3478,-216.99 3478,-216.99"/>
<polygon fill="black" stroke="black" points="3474.5,-216.99 3478,-226.99 3481.5,-216.99 3474.5,-216.99"/>
</g>
<!-- salesModule&#45;&gt;AppModule -->
<g id="edge14" class="edge">
<title>salesModule&#45;&gt;AppModule</title>
<path fill="none" stroke="black" d="M3819,-198.11C3819,-217.34 3819,-245 3819,-245 3819,-245 3529.81,-245 3529.81,-245"/>
<polygon fill="black" stroke="black" points="3529.81,-241.5 3519.81,-245 3529.81,-248.5 3529.81,-241.5"/>
</g>
<!-- unitsModule&#45;&gt;AppModule -->
<g id="edge15" class="edge">
<title>unitsModule&#45;&gt;AppModule</title>
<path fill="none" stroke="black" d="M3924,-198.03C3924,-218.77 3924,-250 3924,-250 3924,-250 3529.96,-250 3529.96,-250"/>
<polygon fill="black" stroke="black" points="3529.96,-246.5 3519.96,-250 3529.96,-253.5 3529.96,-246.5"/>
</g>
<!-- PermissionModules  -->
<g id="node17" class="node">
<title>PermissionModules </title>
<polygon fill="#fb8072" stroke="black" points="3543.21,-328 3412.79,-328 3412.79,-292 3543.21,-292 3543.21,-328"/>
<text text-anchor="middle" x="3478" y="-305.8" font-family="Times,serif" font-size="14.00">PermissionModules </text>
</g>
<!-- AppModule&#45;&gt;PermissionModules  -->
<g id="edge16" class="edge">
<title>AppModule&#45;&gt;PermissionModules </title>
<path fill="none" stroke="black" stroke-dasharray="5,2" d="M3478,-263.11C3478,-263.11 3478,-281.99 3478,-281.99"/>
<polygon fill="black" stroke="black" points="3474.5,-281.99 3478,-291.99 3481.5,-281.99 3474.5,-281.99"/>
</g>
<!-- AuthService -->
<g id="node18" class="node">
<title>AuthService</title>
<ellipse fill="#fdb462" stroke="black" cx="83" cy="-104" rx="59.11" ry="18"/>
<text text-anchor="middle" x="83" y="-99.8" font-family="Times,serif" font-size="14.00">AuthService</text>
</g>
<!-- AuthService&#45;&gt;AuthModule -->
<g id="edge18" class="edge">
<title>AuthService&#45;&gt;AuthModule</title>
<path fill="none" stroke="black" d="M83,-122.03C83,-146.98 83,-189 83,-189 83,-189 2574.36,-189 2574.36,-189"/>
<polygon fill="black" stroke="black" points="2574.36,-192.5 2584.36,-189 2574.36,-185.5 2574.36,-192.5"/>
</g>
<!-- EmailProcessor -->
<g id="node19" class="node">
<title>EmailProcessor</title>
<ellipse fill="#fdb462" stroke="black" cx="232" cy="-104" rx="71.78" ry="18"/>
<text text-anchor="middle" x="232" y="-99.8" font-family="Times,serif" font-size="14.00">EmailProcessor</text>
</g>
<!-- EmailProcessor&#45;&gt;AuthModule -->
<g id="edge19" class="edge">
<title>EmailProcessor&#45;&gt;AuthModule</title>
<path fill="none" stroke="black" d="M255.88,-121.25C255.88,-143.67 255.88,-180 255.88,-180 255.88,-180 2574.29,-180 2574.29,-180"/>
<polygon fill="black" stroke="black" points="2574.29,-183.5 2584.29,-180 2574.29,-176.5 2574.29,-183.5"/>
</g>
<!-- EmailProcessor&#45;&gt;UserModules -->
<g id="edge44" class="edge">
<title>EmailProcessor&#45;&gt;UserModules</title>
<path fill="none" stroke="black" d="M208.12,-121.11C208.12,-137.57 208.12,-160 208.12,-160 208.12,-160 2707.57,-160 2707.57,-160 2707.57,-160 2707.57,-160.18 2707.57,-160.18"/>
<polygon fill="black" stroke="black" points="2704.07,-151.85 2707.57,-161.85 2711.07,-151.85 2704.07,-151.85"/>
</g>
<!-- EmailService -->
<g id="node20" class="node">
<title>EmailService</title>
<ellipse fill="#fdb462" stroke="black" cx="385" cy="-104" rx="63.12" ry="18"/>
<text text-anchor="middle" x="385" y="-99.8" font-family="Times,serif" font-size="14.00">EmailService</text>
</g>
<!-- EmailService&#45;&gt;AuthModule -->
<g id="edge20" class="edge">
<title>EmailService&#45;&gt;AuthModule</title>
<path fill="none" stroke="black" d="M406.02,-121.25C406.02,-141.11 406.02,-171 406.02,-171 406.02,-171 2574.11,-171 2574.11,-171"/>
<polygon fill="black" stroke="black" points="2574.11,-174.5 2584.11,-171 2574.11,-167.5 2574.11,-174.5"/>
</g>
<!-- EmailService&#45;&gt;UserModules -->
<g id="edge45" class="edge">
<title>EmailService&#45;&gt;UserModules</title>
<path fill="none" stroke="black" d="M363.98,-121.09C363.98,-136.91 363.98,-158 363.98,-158 363.98,-158 2725.86,-158 2725.86,-158 2725.86,-158 2725.86,-158.38 2725.86,-158.38"/>
<polygon fill="black" stroke="black" points="2722.36,-151.83 2725.86,-161.83 2729.36,-151.83 2722.36,-151.83"/>
</g>
<!-- BrandService -->
<g id="node21" class="node">
<title>BrandService</title>
<ellipse fill="#fdb462" stroke="black" cx="552" cy="-104" rx="63.68" ry="18"/>
<text text-anchor="middle" x="552" y="-99.8" font-family="Times,serif" font-size="14.00">BrandService</text>
</g>
<!-- BrandService&#45;&gt;BrandModule -->
<g id="edge22" class="edge">
<title>BrandService&#45;&gt;BrandModule</title>
<path fill="none" stroke="black" d="M552,-122.25C552,-136.18 552,-153 552,-153 552,-153 2830.37,-153 2830.37,-153 2830.37,-153 2830.37,-153.88 2830.37,-153.88"/>
<polygon fill="black" stroke="black" points="2826.87,-151.84 2830.37,-161.84 2833.87,-151.84 2826.87,-151.84"/>
</g>
<!-- categoryService -->
<g id="node22" class="node">
<title>categoryService</title>
<ellipse fill="#fdb462" stroke="black" cx="729" cy="-104" rx="73.47" ry="18"/>
<text text-anchor="middle" x="729" y="-99.8" font-family="Times,serif" font-size="14.00">categoryService</text>
</g>
<!-- categoryService&#45;&gt;CategoryModule -->
<g id="edge24" class="edge">
<title>categoryService&#45;&gt;CategoryModule</title>
<path fill="none" stroke="black" d="M729,-122.04C729,-135.29 729,-151 729,-151 729,-151 2947.52,-151 2947.52,-151 2947.52,-151 2947.52,-152.08 2947.52,-152.08"/>
<polygon fill="black" stroke="black" points="2944.02,-151.8 2947.52,-161.8 2951.02,-151.8 2944.02,-151.8"/>
</g>
<!-- CompanyService -->
<g id="node23" class="node">
<title>CompanyService</title>
<ellipse fill="#fdb462" stroke="black" cx="920" cy="-104" rx="77.59" ry="18"/>
<text text-anchor="middle" x="920" y="-99.8" font-family="Times,serif" font-size="14.00">CompanyService</text>
</g>
<!-- CompanyService&#45;&gt;CompanyModule -->
<g id="edge26" class="edge">
<title>CompanyService&#45;&gt;CompanyModule</title>
<path fill="none" stroke="black" d="M920,-122.15C920,-134.27 920,-148 920,-148 920,-148 3077,-148 3077,-148 3077,-148 3077,-151.76 3077,-151.76"/>
<polygon fill="black" stroke="black" points="3073.5,-151.76 3077,-161.76 3080.5,-151.76 3073.5,-151.76"/>
</g>
<!-- CustomerService -->
<g id="node24" class="node">
<title>CustomerService</title>
<ellipse fill="#fdb462" stroke="black" cx="1116" cy="-104" rx="77.58" ry="18"/>
<text text-anchor="middle" x="1116" y="-99.8" font-family="Times,serif" font-size="14.00">CustomerService</text>
</g>
<!-- CustomerService&#45;&gt;CustomerModule -->
<g id="edge28" class="edge">
<title>CustomerService&#45;&gt;CustomerModule</title>
<path fill="none" stroke="black" d="M1116,-122.06C1116,-133.44 1116,-146 1116,-146 1116,-146 3209,-146 3209,-146 3209,-146 3209,-151.81 3209,-151.81"/>
<polygon fill="black" stroke="black" points="3205.5,-151.81 3209,-161.81 3212.5,-151.81 3205.5,-151.81"/>
</g>
<!-- PermissionService -->
<g id="node26" class="node">
<title>PermissionService</title>
<ellipse fill="#fdb462" stroke="black" cx="4242" cy="-180" rx="82.82" ry="18"/>
<text text-anchor="middle" x="4242" y="-175.8" font-family="Times,serif" font-size="14.00">PermissionService</text>
</g>
<!-- PermissionService&#45;&gt;PermissionModules -->
<g id="edge30" class="edge">
<title>PermissionService&#45;&gt;PermissionModules</title>
<path fill="none" stroke="black" d="M4242,-161.76C4242,-146.43 4242,-127 4242,-127 4242,-127 3591.32,-127 3591.32,-127 3591.32,-127 3591.32,-126.51 3591.32,-126.51"/>
<polygon fill="black" stroke="black" points="3594.82,-132.12 3591.32,-122.12 3587.82,-132.12 3594.82,-132.12"/>
</g>
<!-- ProductService -->
<g id="node27" class="node">
<title>ProductService</title>
<ellipse fill="#fdb462" stroke="black" cx="1304" cy="-104" rx="70.06" ry="18"/>
<text text-anchor="middle" x="1304" y="-99.8" font-family="Times,serif" font-size="14.00">ProductService</text>
</g>
<!-- ProductService&#45;&gt;productModule -->
<g id="edge32" class="edge">
<title>ProductService&#45;&gt;productModule</title>
<path fill="none" stroke="black" d="M1304,-122.13C1304,-132.71 1304,-144 1304,-144 1304,-144 3336.95,-144 3336.95,-144 3336.95,-144 3336.95,-151.58 3336.95,-151.58"/>
<polygon fill="black" stroke="black" points="3333.45,-151.58 3336.95,-161.58 3340.45,-151.58 3333.45,-151.58"/>
</g>
<!-- purchaseService -->
<g id="node28" class="node">
<title>purchaseService</title>
<ellipse fill="#fdb462" stroke="black" cx="1488" cy="-104" rx="74.12" ry="18"/>
<text text-anchor="middle" x="1488" y="-99.8" font-family="Times,serif" font-size="14.00">purchaseService</text>
</g>
<!-- purchaseService&#45;&gt;purchaseModule -->
<g id="edge34" class="edge">
<title>purchaseService&#45;&gt;purchaseModule</title>
<path fill="none" stroke="black" d="M1488,-122.07C1488,-131.46 1488,-141 1488,-141 1488,-141 3448.87,-141 3448.87,-141 3448.87,-141 3448.87,-151.87 3448.87,-151.87"/>
<polygon fill="black" stroke="black" points="3445.37,-151.87 3448.87,-161.87 3452.37,-151.87 3445.37,-151.87"/>
</g>
<!-- ReportService -->
<g id="node29" class="node">
<title>ReportService</title>
<ellipse fill="#fdb462" stroke="black" cx="1668" cy="-104" rx="66.05" ry="18"/>
<text text-anchor="middle" x="1668" y="-99.8" font-family="Times,serif" font-size="14.00">ReportService</text>
</g>
<!-- ReportService&#45;&gt;ReportModule -->
<g id="edge36" class="edge">
<title>ReportService&#45;&gt;ReportModule</title>
<path fill="none" stroke="black" d="M1668,-122.32C1668,-130.79 1668,-139 1668,-139 1668,-139 3560.46,-139 3560.46,-139 3560.46,-139 3560.46,-151.9 3560.46,-151.9"/>
<polygon fill="black" stroke="black" points="3556.96,-151.9 3560.46,-161.9 3563.96,-151.9 3556.96,-151.9"/>
</g>
<!-- RolesService -->
<g id="node30" class="node">
<title>RolesService</title>
<ellipse fill="#fdb462" stroke="black" cx="1836" cy="-104" rx="61.97" ry="18"/>
<text text-anchor="middle" x="1836" y="-99.8" font-family="Times,serif" font-size="14.00">RolesService</text>
</g>
<!-- RolesService&#45;&gt;RolesModule -->
<g id="edge38" class="edge">
<title>RolesService&#45;&gt;RolesModule</title>
<path fill="none" stroke="black" d="M1836,-122.04C1836,-129.75 1836,-137 1836,-137 1836,-137 3696.76,-137 3696.76,-137 3696.76,-137 3696.76,-151.51 3696.76,-151.51"/>
<polygon fill="black" stroke="black" points="3693.26,-151.51 3696.76,-161.51 3700.26,-151.51 3693.26,-151.51"/>
</g>
<!-- salesService -->
<g id="node31" class="node">
<title>salesService</title>
<ellipse fill="#fdb462" stroke="black" cx="1997" cy="-104" rx="58.52" ry="18"/>
<text text-anchor="middle" x="1997" y="-99.8" font-family="Times,serif" font-size="14.00">salesService</text>
</g>
<!-- salesService&#45;&gt;salesModule -->
<g id="edge40" class="edge">
<title>salesService&#45;&gt;salesModule</title>
<path fill="none" stroke="black" d="M1997,-122.14C1997,-128.46 1997,-134 1997,-134 1997,-134 3804.54,-134 3804.54,-134 3804.54,-134 3804.54,-151.82 3804.54,-151.82"/>
<polygon fill="black" stroke="black" points="3801.04,-151.82 3804.54,-161.82 3808.04,-151.82 3801.04,-151.82"/>
</g>
<!-- UnitService -->
<g id="node32" class="node">
<title>UnitService</title>
<ellipse fill="#fdb462" stroke="black" cx="2153" cy="-104" rx="57.32" ry="18"/>
<text text-anchor="middle" x="2153" y="-99.8" font-family="Times,serif" font-size="14.00">UnitService</text>
</g>
<!-- UnitService&#45;&gt;unitsModule -->
<g id="edge42" class="edge">
<title>UnitService&#45;&gt;unitsModule</title>
<path fill="none" stroke="black" d="M2153,-122.21C2153,-127.55 2153,-132 2153,-132 2153,-132 3909.54,-132 3909.54,-132 3909.54,-132 3909.54,-151.85 3909.54,-151.85"/>
<polygon fill="black" stroke="black" points="3906.04,-151.85 3909.54,-161.85 3913.04,-151.85 3906.04,-151.85"/>
</g>
<!-- UserService -->
<g id="node33" class="node">
<title>UserService</title>
<ellipse fill="#fdb462" stroke="black" cx="2308" cy="-104" rx="58.44" ry="18"/>
<text text-anchor="middle" x="2308" y="-99.8" font-family="Times,serif" font-size="14.00">UserService</text>
</g>
<!-- UserService&#45;&gt;UserModules -->
<g id="edge46" class="edge">
<title>UserService&#45;&gt;UserModules</title>
<path fill="none" stroke="black" d="M2308,-122.12C2308,-136.78 2308,-155 2308,-155 2308,-155 2744.14,-155 2744.14,-155 2744.14,-155 2744.14,-155.68 2744.14,-155.68"/>
<polygon fill="black" stroke="black" points="2740.64,-151.83 2744.14,-161.83 2747.64,-151.83 2740.64,-151.83"/>
</g>
<!-- VendorService -->
<g id="node34" class="node">
<title>VendorService</title>
<ellipse fill="#fdb462" stroke="black" cx="2475" cy="-104" rx="68.9" ry="18"/>
<text text-anchor="middle" x="2475" y="-99.8" font-family="Times,serif" font-size="14.00">VendorService</text>
</g>
<!-- VendorService&#45;&gt;VendorModule -->
<g id="edge48" class="edge">
<title>VendorService&#45;&gt;VendorModule</title>
<path fill="none" stroke="black" d="M2475,-122.06C2475,-126.49 2475,-130 2475,-130 2475,-130 4036,-130 4036,-130 4036,-130 4036,-151.95 4036,-151.95"/>
<polygon fill="black" stroke="black" points="4032.5,-151.95 4036,-161.95 4039.5,-151.95 4032.5,-151.95"/>
</g>
</g>
</svg>
